%TF.GenerationSoftware,KiCad,Pcbnew,10.0.4*%
%TF.CreationDate,2026-09-13T18:26:34+02:00*%
%TF.ProjectId,Duino_miner,4475696e-6f5f-46d6-996e-65722e6b6963,rev?*%
%TF.SameCoordinates,Original*%
%TF.FileFunction,Copper,L2,Bot*%
%TF.FilePolarity,Positive*%
%FSLAX46Y46*%
G04 Gerber Fmt 4.6, Leading zero omitted, Abs format (unit mm)*
G04 Created by KiCad (PCBNEW 10.0.4) date 2026-09-13 18:26:34*
%MOMM*%
%LPD*%
G01*
G04 APERTURE LIST*
%TA.AperFunction,ComponentPad*%
%ADD10C,1.500000*%
%TD*%
%TA.AperFunction,ComponentPad*%
%ADD11C,2.000000*%
%TD*%
%TA.AperFunction,ComponentPad*%
%ADD12R,1.700000X1.700000*%
%TD*%
%TA.AperFunction,ComponentPad*%
%ADD13C,1.700000*%
%TD*%
%TA.AperFunction,ComponentPad*%
%ADD14C,1.524000*%
%TD*%
%TA.AperFunction,ViaPad*%
%ADD15C,0.600000*%
%TD*%
%TA.AperFunction,ViaPad*%
%ADD16C,0.800000*%
%TD*%
%TA.AperFunction,Conductor*%
%ADD17C,0.350000*%
%TD*%
%TA.AperFunction,Conductor*%
%ADD18C,0.250000*%
%TD*%
G04 APERTURE END LIST*
D10*
%TO.P,Y5,1,1_1*%
%TO.N,Net-(U6-XTAL2{slash}PB7)*%
X196990965Y-84666646D03*
%TO.P,Y5,2,2_2*%
%TO.N,Net-(U6-XTAL1{slash}PB6)*%
X200441646Y-81215965D03*
%TD*%
D11*
%TO.P,SW2,1,1_1*%
%TO.N,Net-(U3-~{RESET}{slash}PC6)*%
X170918019Y-81681981D03*
X166321825Y-77085787D03*
%TO.P,SW2,2,2_2*%
%TO.N,/ISP_RESET*%
X174100000Y-78500000D03*
X169503805Y-73903806D03*
%TD*%
%TO.P,SW3,1,1_1*%
%TO.N,Net-(U4-~{RESET}{slash}PC6)*%
X193780000Y-96010000D03*
X200280000Y-96010000D03*
%TO.P,SW3,2,2_2*%
%TO.N,/ISP_RESET*%
X193780000Y-100510001D03*
X200280001Y-100510000D03*
%TD*%
D10*
%TO.P,Y3,1,1_1*%
%TO.N,Net-(U4-XTAL2{slash}PB7)*%
X173422500Y-88687841D03*
%TO.P,Y3,2,2_2*%
%TO.N,Net-(U4-XTAL1{slash}PB6)*%
X176873181Y-85237160D03*
%TD*%
%TO.P,Y1,1,1_1*%
%TO.N,Net-(U2-XTAL2{slash}PB7)*%
X152000000Y-104500000D03*
%TO.P,Y1,2,2_2*%
%TO.N,Net-(U2-XTAL1{slash}PB6)*%
X155450681Y-101049319D03*
%TD*%
D11*
%TO.P,SW5,1,1_1*%
%TO.N,Net-(U6-~{RESET}{slash}PC6)*%
X213533576Y-85284257D03*
X208937382Y-80688063D03*
%TO.P,SW5,2,2_2*%
%TO.N,/ISP_RESET*%
X216715557Y-82102276D03*
X212119362Y-77506082D03*
%TD*%
D12*
%TO.P,J1,1,Pin_1_1*%
%TO.N,/ISP_MISO*%
X151460000Y-91980000D03*
D13*
%TO.P,J1,2,Pin_2_2*%
%TO.N,+5V*%
X154000000Y-91980000D03*
%TO.P,J1,3,Pin_3_3*%
%TO.N,/ISP_SCK*%
X151460000Y-89440000D03*
%TO.P,J1,4,Pin_4_4*%
%TO.N,/ISP_MOSI*%
X154000000Y-89440000D03*
%TO.P,J1,5,Pin_5_5*%
%TO.N,/ISP_RESET*%
X151460000Y-86900000D03*
%TO.P,J1,6,Pin_6_6*%
%TO.N,GND*%
X154000000Y-86900000D03*
%TD*%
D10*
%TO.P,Y2,1,1_1*%
%TO.N,Net-(U3-XTAL2{slash}PB7)*%
X152557380Y-79577620D03*
%TO.P,Y2,2,2_2*%
%TO.N,Net-(U3-XTAL1{slash}PB6)*%
X156008061Y-76126939D03*
%TD*%
%TO.P,Y4,1,1_1*%
%TO.N,Net-(U5-XTAL2{slash}PB7)*%
X175700000Y-71700000D03*
%TO.P,Y4,2,2_2*%
%TO.N,Net-(U5-XTAL1{slash}PB6)*%
X179150681Y-68249319D03*
%TD*%
%TO.P,Y6,1,1_1*%
%TO.N,Net-(U7-XTAL2{slash}PB7)*%
X208219319Y-107750681D03*
%TO.P,Y6,2,2_2*%
%TO.N,Net-(U7-XTAL1{slash}PB6)*%
X211670000Y-104300000D03*
%TD*%
D11*
%TO.P,SW6,1,1_1*%
%TO.N,Net-(U7-~{RESET}{slash}PC6)*%
X220048019Y-103901981D03*
X215451825Y-99305787D03*
%TO.P,SW6,2,2_2*%
%TO.N,/ISP_RESET*%
X223230000Y-100720000D03*
X218633805Y-96123806D03*
%TD*%
D14*
%TO.P,U1,1,D0_1*%
%TO.N,unconnected-(U1-D0-Pad1)*%
X195140000Y-121420000D03*
%TO.P,U1,2,D1_2*%
%TO.N,unconnected-(U1-D1-Pad2)*%
X195140000Y-118880000D03*
%TO.P,U1,3,D2_3*%
%TO.N,unconnected-(U1-D2-Pad3)*%
X195140000Y-116340000D03*
%TO.P,U1,4,D3_4*%
%TO.N,unconnected-(U1-D3-Pad4)*%
X195140000Y-113800000D03*
%TO.P,U1,5,D4_5*%
%TO.N,Net-(Q1A-S)*%
X195140000Y-111260000D03*
%TO.P,U1,6,D5_6*%
%TO.N,Net-(Q1B-S)*%
X195140000Y-108720000D03*
%TO.P,U1,7,D6_7*%
%TO.N,unconnected-(U1-D6-Pad7)*%
X195140000Y-106180000D03*
%TO.P,U1,8,D7_8*%
%TO.N,unconnected-(U1-D7-Pad8)*%
X179900000Y-106180000D03*
%TO.P,U1,9,D8_9*%
%TO.N,unconnected-(U1-D8-Pad9)*%
X179900000Y-108720000D03*
%TO.P,U1,10,D9/BOOT_10*%
%TO.N,unconnected-(U1-D9{slash}BOOT-Pad10)*%
X179900000Y-111260000D03*
%TO.P,U1,11,D10_11*%
%TO.N,unconnected-(U1-D10-Pad11)*%
X179900000Y-113800000D03*
%TO.P,U1,12,3V3_OUT_12*%
%TO.N,+3V3*%
X179900000Y-116340000D03*
%TO.P,U1,13,GND_13*%
%TO.N,GND*%
X179900000Y-118880000D03*
%TO.P,U1,14,VBUS_14*%
%TO.N,+5V*%
X179900000Y-121420000D03*
%TD*%
D11*
%TO.P,SW4,1,1_1*%
%TO.N,Net-(U5-~{RESET}{slash}PC6)*%
X198780394Y-67198413D03*
X203376588Y-71794607D03*
%TO.P,SW4,2,2_2*%
%TO.N,/ISP_RESET*%
X195598413Y-70380394D03*
X200194608Y-74976588D03*
%TD*%
%TO.P,SW1,1,1_1*%
%TO.N,Net-(U2-~{RESET}{slash}PC6)*%
X170128580Y-108921420D03*
X165532386Y-104325226D03*
%TO.P,SW1,2,2_2*%
%TO.N,/ISP_RESET*%
X173310561Y-105739439D03*
X168714366Y-101143245D03*
%TD*%
D15*
%TO.N,GND*%
X212950000Y-102200000D03*
X213200000Y-98900000D03*
X159050000Y-99500000D03*
X183500000Y-66050000D03*
X203900000Y-101800000D03*
X197700000Y-95250000D03*
X192400000Y-97750000D03*
X199400000Y-98250000D03*
X175150000Y-87050000D03*
X166250000Y-94950000D03*
X207150000Y-121400000D03*
%TO.N,+3V3*%
X202550000Y-105850000D03*
X202540000Y-109800000D03*
%TO.N,GND*%
X186100000Y-92200000D03*
X219100000Y-112500000D03*
X221000000Y-106800000D03*
X188500000Y-73000000D03*
X191200000Y-66050000D03*
X207900000Y-91000000D03*
D16*
%TO.N,+5V*%
X154000000Y-94460000D03*
%TO.N,/ISP_MOSI*%
X154200000Y-115100000D03*
X211300000Y-115300000D03*
X181500000Y-77300000D03*
X156300000Y-89500000D03*
X184700000Y-92775000D03*
X177400000Y-96500000D03*
X181850000Y-92850000D03*
X199200000Y-92775000D03*
%TO.N,/ISP_MISO*%
X155000000Y-115900000D03*
X177387347Y-97512653D03*
X200500000Y-93500000D03*
X182600000Y-77800000D03*
X156300000Y-90662500D03*
X211502474Y-117100000D03*
%TO.N,/ISP_SCK*%
X181600000Y-79600000D03*
X205430000Y-111200000D03*
X198900000Y-94500000D03*
X159300000Y-93400000D03*
X170900000Y-93400000D03*
X156000000Y-117300000D03*
X181600000Y-100400000D03*
%TO.N,/SDA_5V*%
X213050000Y-92850000D03*
X215000000Y-92800000D03*
X198060000Y-105770000D03*
X181970000Y-105040000D03*
X191600000Y-102800000D03*
X208974847Y-99699847D03*
%TO.N,/SCL_5V*%
X177900000Y-104300000D03*
X207487347Y-100487347D03*
X181100000Y-104300000D03*
X196087796Y-96829265D03*
X191619847Y-101754847D03*
X203775000Y-102975000D03*
%TO.N,/ISP_RESET*%
X203650000Y-96425000D03*
D15*
%TO.N,GND*%
X210850000Y-74050000D03*
%TD*%
%TO.N,+3V3*%
D17*
X202540000Y-105860000D02*
X202550000Y-105850000D01*
X202540000Y-109800000D02*
X202540000Y-105860000D01*
%TO.N,/ISP_RESET*%
X190578807Y-75400000D02*
X195598413Y-70380394D01*
X170999999Y-75400000D02*
X190578807Y-75400000D01*
X169503805Y-73903806D02*
X170999999Y-75400000D01*
%TO.N,+5V*%
X154000000Y-91980000D02*
X154000000Y-94460000D01*
%TO.N,/ISP_MOSI*%
D18*
X161274695Y-96400000D02*
X157400000Y-92525305D01*
X199175000Y-92800000D02*
X198500000Y-92800000D01*
X181500000Y-78000000D02*
X182700000Y-79200000D01*
X177400000Y-96500000D02*
X177300000Y-96400000D01*
X179800000Y-94100000D02*
X177400000Y-96500000D01*
X211300000Y-111800000D02*
X211300000Y-115300000D01*
X198500000Y-92800000D02*
X198250000Y-93050000D01*
X177300000Y-96400000D02*
X161274695Y-96400000D01*
X180600000Y-94100000D02*
X179800000Y-94100000D01*
X182700000Y-79200000D02*
X182700000Y-92000000D01*
X154200000Y-115100000D02*
X148000000Y-108900000D01*
X202900000Y-96700000D02*
X203450000Y-97250000D01*
X181500000Y-77300000D02*
X181500000Y-78000000D01*
X203450000Y-97250000D02*
X210450000Y-97250000D01*
X184975000Y-93050000D02*
X184700000Y-92775000D01*
X210450000Y-97250000D02*
X216300000Y-103100000D01*
X157400000Y-90600000D02*
X156300000Y-89500000D01*
X152775000Y-93125000D02*
X152775000Y-90665000D01*
X200875000Y-92775000D02*
X202900000Y-94800000D01*
X199200000Y-92775000D02*
X200875000Y-92775000D01*
X216300000Y-106800000D02*
X211300000Y-111800000D01*
X182700000Y-92000000D02*
X181850000Y-92850000D01*
X202900000Y-94800000D02*
X202900000Y-96700000D01*
X148000000Y-97900000D02*
X152775000Y-93125000D01*
X157400000Y-92525305D02*
X157400000Y-90600000D01*
X181850000Y-92850000D02*
X180600000Y-94100000D01*
X199200000Y-92775000D02*
X199175000Y-92800000D01*
X216300000Y-103100000D02*
X216300000Y-106800000D01*
X148000000Y-108900000D02*
X148000000Y-97900000D01*
X152775000Y-90665000D02*
X154000000Y-89440000D01*
X198250000Y-93050000D02*
X184975000Y-93050000D01*
%TO.N,/ISP_MISO*%
X182600000Y-77800000D02*
X182600000Y-78400000D01*
X151460000Y-91980000D02*
X147500000Y-95940000D01*
X147500000Y-109425305D02*
X153974695Y-115900000D01*
X211100000Y-117100000D02*
X210575000Y-116575000D01*
X156900000Y-92700000D02*
X156900000Y-91262500D01*
X161000000Y-96800000D02*
X156900000Y-92700000D01*
X183150000Y-93086396D02*
X183563604Y-93500000D01*
X183563604Y-93500000D02*
X200500000Y-93500000D01*
X210575000Y-111925000D02*
X210850000Y-111650000D01*
X176250000Y-96850000D02*
X161088299Y-96850000D01*
X182600000Y-78400000D02*
X183150000Y-78950000D01*
X161088299Y-96850000D02*
X161038299Y-96800000D01*
X215850000Y-106613604D02*
X215850000Y-103286396D01*
X215850000Y-103286396D02*
X210263604Y-97700000D01*
X210575000Y-114999695D02*
X210575000Y-111925000D01*
X177387347Y-97512653D02*
X176912653Y-97512653D01*
X161038299Y-96800000D02*
X161000000Y-96800000D01*
X178723743Y-97512653D02*
X177387347Y-97512653D01*
X203263604Y-97700000D02*
X202400000Y-96836396D01*
X211502474Y-117100000D02*
X211100000Y-117100000D01*
X210850000Y-111613604D02*
X215850000Y-106613604D01*
X176912653Y-97512653D02*
X176250000Y-96850000D01*
X183150000Y-93086396D02*
X178723743Y-97512653D01*
X202400000Y-94936396D02*
X200963604Y-93500000D01*
X153974695Y-115900000D02*
X155000000Y-115900000D01*
X210575000Y-116575000D02*
X210575000Y-115600305D01*
X210263604Y-97700000D02*
X203263604Y-97700000D01*
X210850000Y-111650000D02*
X210850000Y-111613604D01*
X210575000Y-115600305D02*
X210575000Y-114999695D01*
X156900000Y-91262500D02*
X156300000Y-90662500D01*
X202400000Y-96836396D02*
X202400000Y-94936396D01*
X183150000Y-78950000D02*
X183150000Y-93086396D01*
X200963604Y-93500000D02*
X200500000Y-93500000D01*
X147500000Y-95940000D02*
X147500000Y-109425305D01*
%TO.N,/ISP_SCK*%
X170900000Y-93400000D02*
X169500000Y-92000000D01*
X151460000Y-89440000D02*
X150760000Y-89440000D01*
X191100000Y-98200000D02*
X188900000Y-100400000D01*
X201700000Y-95200000D02*
X201700000Y-97400000D01*
X170900000Y-93400000D02*
X159300000Y-93400000D01*
X198900000Y-94500000D02*
X201000000Y-94500000D01*
X192200000Y-94500000D02*
X191100000Y-95600000D01*
X209500000Y-98900000D02*
X209925000Y-99325000D01*
X198900000Y-94500000D02*
X192200000Y-94500000D01*
X203200000Y-98900000D02*
X209500000Y-98900000D01*
X177400000Y-79600000D02*
X181600000Y-79600000D01*
X191100000Y-95600000D02*
X191100000Y-98200000D01*
X153800000Y-117300000D02*
X156000000Y-117300000D01*
X150760000Y-89440000D02*
X146200000Y-94000000D01*
X169500000Y-87500000D02*
X177400000Y-79600000D01*
X209925000Y-99875000D02*
X203900000Y-105900000D01*
X146200000Y-109700000D02*
X153800000Y-117300000D01*
X209925000Y-99325000D02*
X209925000Y-99875000D01*
X169500000Y-92000000D02*
X169500000Y-87500000D01*
X201000000Y-94500000D02*
X201700000Y-95200000D01*
X203900000Y-105900000D02*
X203900000Y-109170000D01*
X205430000Y-110700000D02*
X205430000Y-111200000D01*
X201700000Y-97400000D02*
X203200000Y-98900000D01*
X146200000Y-94000000D02*
X146200000Y-109700000D01*
X203900000Y-109170000D02*
X205430000Y-110700000D01*
X188900000Y-100400000D02*
X181600000Y-100400000D01*
%TO.N,/SDA_5V*%
X198060000Y-105730000D02*
X198060000Y-105770000D01*
X204300000Y-104700000D02*
X199130000Y-104700000D01*
X208974847Y-100025153D02*
X204300000Y-104700000D01*
X213050000Y-92850000D02*
X213100000Y-92800000D01*
X208974847Y-99699847D02*
X208974847Y-100025153D01*
X213100000Y-92800000D02*
X215000000Y-92800000D01*
X199130000Y-104700000D02*
X198060000Y-105770000D01*
X191600000Y-102800000D02*
X189360000Y-105040000D01*
X189360000Y-105040000D02*
X181970000Y-105040000D01*
X195130000Y-102800000D02*
X198060000Y-105730000D01*
X191600000Y-102800000D02*
X195130000Y-102800000D01*
%TO.N,/SCL_5V*%
X191619847Y-101754847D02*
X191505153Y-101754847D01*
X196666396Y-103700000D02*
X195316396Y-102350000D01*
X191724847Y-101754847D02*
X191619847Y-101754847D01*
X196087796Y-96829265D02*
X195517061Y-97400000D01*
X191619847Y-100380153D02*
X191619847Y-101754847D01*
X203775000Y-102975000D02*
X203545000Y-102975000D01*
X194600000Y-97400000D02*
X191619847Y-100380153D01*
X204999694Y-102975000D02*
X203775000Y-102975000D01*
X192320000Y-102350000D02*
X191724847Y-101754847D01*
X195517061Y-97400000D02*
X194600000Y-97400000D01*
X207487347Y-100487347D02*
X204999694Y-102975000D01*
X203545000Y-102975000D02*
X202820000Y-103700000D01*
X177900000Y-104300000D02*
X181100000Y-104300000D01*
X191505153Y-101754847D02*
X188960000Y-104300000D01*
X188960000Y-104300000D02*
X181100000Y-104300000D01*
X195316396Y-102350000D02*
X192320000Y-102350000D01*
X202820000Y-103700000D02*
X196666396Y-103700000D01*
%TO.N,/ISP_RESET*%
X207306082Y-77506082D02*
X212119362Y-77506082D01*
D17*
X164456194Y-73903806D02*
X169503805Y-73903806D01*
D18*
X168714366Y-101143245D02*
X165371121Y-97800000D01*
X157500000Y-97800000D02*
X155400000Y-95700000D01*
D17*
X216715557Y-82102276D02*
X218633805Y-84020524D01*
D18*
X203650000Y-96350000D02*
X203876194Y-96123806D01*
D17*
X151460000Y-86900000D02*
X164456194Y-73903806D01*
D18*
X154800000Y-88100000D02*
X152660000Y-88100000D01*
X155400000Y-88700000D02*
X154800000Y-88100000D01*
X165371121Y-97800000D02*
X157500000Y-97800000D01*
X200194608Y-75205392D02*
X200194608Y-74976588D01*
D17*
X218633805Y-84020524D02*
X218633805Y-96123806D01*
D18*
X203650000Y-96425000D02*
X203650000Y-96350000D01*
X203876194Y-96123806D02*
X218633805Y-96123806D01*
X152660000Y-88100000D02*
X151460000Y-86900000D01*
X155400000Y-95700000D02*
X155400000Y-88700000D01*
X204776588Y-74976588D02*
X207306082Y-77506082D01*
X200194608Y-74976588D02*
X204776588Y-74976588D01*
%TO.N,Net-(U4-~{RESET}{slash}PC6)*%
X200280000Y-96010000D02*
X193780000Y-96010000D01*
%TD*%
%TA.AperFunction,Conductor*%
%TO.N,GND*%
G36*
X199073417Y-96404407D02*
G01*
X199109381Y-96453907D01*
X199109381Y-96453908D01*
X199121115Y-96490024D01*
X199197288Y-96639522D01*
X199210476Y-96665405D01*
X199326172Y-96824646D01*
X199465354Y-96963828D01*
X199624595Y-97079524D01*
X199799975Y-97168884D01*
X199987174Y-97229709D01*
X199987175Y-97229709D01*
X199987178Y-97229710D01*
X200181580Y-97260500D01*
X200181583Y-97260500D01*
X200378420Y-97260500D01*
X200572821Y-97229710D01*
X200572822Y-97229709D01*
X200572826Y-97229709D01*
X200760025Y-97168884D01*
X200935405Y-97079524D01*
X201094646Y-96963828D01*
X201155498Y-96902975D01*
X201210013Y-96875200D01*
X201270445Y-96884771D01*
X201313710Y-96928036D01*
X201324500Y-96972981D01*
X201324500Y-97449436D01*
X201329859Y-97469434D01*
X201329860Y-97469438D01*
X201350090Y-97544939D01*
X201350091Y-97544941D01*
X201399525Y-97630563D01*
X201399526Y-97630563D01*
X202899525Y-99130562D01*
X202899524Y-99130562D01*
X202969438Y-99200475D01*
X203055058Y-99249908D01*
X203055056Y-99249908D01*
X203055060Y-99249909D01*
X203055062Y-99249910D01*
X203090856Y-99259501D01*
X203150564Y-99275500D01*
X203150565Y-99275500D01*
X208298358Y-99275500D01*
X208356549Y-99294407D01*
X208392513Y-99343907D01*
X208392513Y-99405093D01*
X208389822Y-99412386D01*
X208349347Y-99510099D01*
X208349346Y-99510104D01*
X208325402Y-99630476D01*
X208324347Y-99635778D01*
X208324347Y-99763916D01*
X208348503Y-99885355D01*
X208349346Y-99889589D01*
X208349347Y-99889594D01*
X208363778Y-99924434D01*
X208389001Y-99985327D01*
X208391404Y-99991127D01*
X208393514Y-100017938D01*
X208397721Y-100044500D01*
X208395888Y-100048097D01*
X208396205Y-100052124D01*
X208369944Y-100099017D01*
X208234753Y-100234208D01*
X208180236Y-100261985D01*
X208119804Y-100252414D01*
X208076539Y-100209149D01*
X208073285Y-100202089D01*
X208063814Y-100179224D01*
X208063808Y-100179213D01*
X208005449Y-100091874D01*
X207992623Y-100072678D01*
X207902016Y-99982071D01*
X207859573Y-99953712D01*
X207795480Y-99910885D01*
X207795472Y-99910881D01*
X207677094Y-99861847D01*
X207677092Y-99861846D01*
X207677091Y-99861846D01*
X207551416Y-99836847D01*
X207423278Y-99836847D01*
X207423277Y-99836847D01*
X207360440Y-99849346D01*
X207297603Y-99861846D01*
X207297602Y-99861846D01*
X207297599Y-99861847D01*
X207179221Y-99910881D01*
X207179213Y-99910885D01*
X207072678Y-99982071D01*
X207072674Y-99982074D01*
X206982074Y-100072674D01*
X206982071Y-100072678D01*
X206910885Y-100179213D01*
X206910881Y-100179221D01*
X206861847Y-100297599D01*
X206861846Y-100297604D01*
X206836847Y-100423277D01*
X206836847Y-100551420D01*
X206837224Y-100555251D01*
X206824107Y-100615014D01*
X206808704Y-100634951D01*
X204873153Y-102570504D01*
X204818636Y-102598281D01*
X204803149Y-102599500D01*
X204359244Y-102599500D01*
X204301053Y-102580593D01*
X204282708Y-102563295D01*
X204280276Y-102560331D01*
X204189672Y-102469727D01*
X204189669Y-102469724D01*
X204147226Y-102441365D01*
X204083133Y-102398538D01*
X204083125Y-102398534D01*
X203964747Y-102349500D01*
X203964745Y-102349499D01*
X203964744Y-102349499D01*
X203839069Y-102324500D01*
X203710931Y-102324500D01*
X203710930Y-102324500D01*
X203648093Y-102336999D01*
X203585256Y-102349499D01*
X203585255Y-102349499D01*
X203585252Y-102349500D01*
X203466874Y-102398534D01*
X203466866Y-102398538D01*
X203360331Y-102469724D01*
X203360327Y-102469727D01*
X203269727Y-102560327D01*
X203269724Y-102560331D01*
X203198538Y-102666866D01*
X203198534Y-102666874D01*
X203149498Y-102785257D01*
X203149497Y-102785262D01*
X203141896Y-102823470D01*
X203114803Y-102874157D01*
X202693460Y-103295503D01*
X202638943Y-103323281D01*
X202623456Y-103324500D01*
X196862941Y-103324500D01*
X196804750Y-103305593D01*
X196792937Y-103295504D01*
X195546959Y-102049526D01*
X195546959Y-102049525D01*
X195461337Y-102000091D01*
X195461333Y-102000089D01*
X195406545Y-101985408D01*
X195406545Y-101985409D01*
X195386188Y-101979954D01*
X195365832Y-101974500D01*
X195365831Y-101974500D01*
X192516545Y-101974500D01*
X192458354Y-101955593D01*
X192446541Y-101945504D01*
X192299343Y-101798306D01*
X192271566Y-101743789D01*
X192270347Y-101728302D01*
X192270347Y-101690779D01*
X192270347Y-101690778D01*
X192245348Y-101565103D01*
X192196312Y-101446720D01*
X192196310Y-101446717D01*
X192196308Y-101446713D01*
X192167564Y-101403695D01*
X192125123Y-101340178D01*
X192034516Y-101249571D01*
X192031545Y-101247133D01*
X191998556Y-101195602D01*
X191995347Y-101170602D01*
X191995347Y-100576697D01*
X192014254Y-100518506D01*
X192024343Y-100506694D01*
X192202438Y-100328599D01*
X192391217Y-100139819D01*
X192445733Y-100112042D01*
X192506165Y-100121613D01*
X192549430Y-100164878D01*
X192559001Y-100225309D01*
X192529500Y-100411579D01*
X192529500Y-100608421D01*
X192560289Y-100802822D01*
X192621116Y-100990026D01*
X192710473Y-101165402D01*
X192710476Y-101165406D01*
X192826172Y-101324647D01*
X192965354Y-101463829D01*
X193124595Y-101579525D01*
X193299975Y-101668885D01*
X193487174Y-101729710D01*
X193487175Y-101729710D01*
X193487178Y-101729711D01*
X193681580Y-101760501D01*
X193681583Y-101760501D01*
X193878420Y-101760501D01*
X194072821Y-101729711D01*
X194072822Y-101729710D01*
X194072826Y-101729710D01*
X194260025Y-101668885D01*
X194435405Y-101579525D01*
X194594646Y-101463829D01*
X194733828Y-101324647D01*
X194849524Y-101165406D01*
X194938884Y-100990026D01*
X194999709Y-100802827D01*
X195000407Y-100798420D01*
X195030500Y-100608421D01*
X195030500Y-100411580D01*
X195030500Y-100411579D01*
X199029501Y-100411579D01*
X199029501Y-100608420D01*
X199060290Y-100802821D01*
X199075756Y-100850419D01*
X199121117Y-100990025D01*
X199210477Y-101165405D01*
X199326173Y-101324646D01*
X199465355Y-101463828D01*
X199624596Y-101579524D01*
X199799976Y-101668884D01*
X199987175Y-101729709D01*
X199987176Y-101729709D01*
X199987179Y-101729710D01*
X200181581Y-101760500D01*
X200181584Y-101760500D01*
X200378421Y-101760500D01*
X200572822Y-101729710D01*
X200572823Y-101729709D01*
X200572827Y-101729709D01*
X200760026Y-101668884D01*
X200935406Y-101579524D01*
X201094647Y-101463828D01*
X201233829Y-101324646D01*
X201349525Y-101165405D01*
X201438885Y-100990025D01*
X201499710Y-100802826D01*
X201500408Y-100798420D01*
X201530501Y-100608420D01*
X201530501Y-100411579D01*
X201499711Y-100217178D01*
X201499710Y-100217174D01*
X201438885Y-100029975D01*
X201349525Y-99854595D01*
X201233829Y-99695354D01*
X201094647Y-99556172D01*
X200935406Y-99440476D01*
X200935405Y-99440475D01*
X200935403Y-99440474D01*
X200760026Y-99351116D01*
X200572822Y-99290289D01*
X200378421Y-99259500D01*
X200378418Y-99259500D01*
X200181584Y-99259500D01*
X200181581Y-99259500D01*
X199987179Y-99290289D01*
X199799975Y-99351116D01*
X199624598Y-99440474D01*
X199465356Y-99556171D01*
X199326172Y-99695355D01*
X199210475Y-99854597D01*
X199121117Y-100029974D01*
X199060290Y-100217178D01*
X199029501Y-100411579D01*
X195030500Y-100411579D01*
X194999710Y-100217179D01*
X194999709Y-100217175D01*
X194938884Y-100029976D01*
X194849524Y-99854596D01*
X194733828Y-99695355D01*
X194594646Y-99556173D01*
X194435405Y-99440477D01*
X194435404Y-99440476D01*
X194435402Y-99440475D01*
X194260025Y-99351117D01*
X194072821Y-99290290D01*
X193878420Y-99259501D01*
X193878417Y-99259501D01*
X193681583Y-99259501D01*
X193681579Y-99259501D01*
X193495308Y-99289002D01*
X193434876Y-99279430D01*
X193391612Y-99236165D01*
X193382041Y-99175733D01*
X193409819Y-99121217D01*
X193518072Y-99012965D01*
X194039896Y-98491141D01*
X194726543Y-97804496D01*
X194781059Y-97776719D01*
X194796546Y-97775500D01*
X195566497Y-97775500D01*
X195614247Y-97762705D01*
X195614248Y-97762705D01*
X195661995Y-97749911D01*
X195661994Y-97749911D01*
X195661999Y-97749910D01*
X195747623Y-97700475D01*
X195817536Y-97630562D01*
X195940191Y-97507905D01*
X195994705Y-97480129D01*
X196019909Y-97479388D01*
X196023722Y-97479764D01*
X196023727Y-97479765D01*
X196023732Y-97479765D01*
X196151864Y-97479765D01*
X196151865Y-97479765D01*
X196277540Y-97454766D01*
X196395923Y-97405730D01*
X196502465Y-97334541D01*
X196593072Y-97243934D01*
X196664261Y-97137392D01*
X196713297Y-97019009D01*
X196738296Y-96893334D01*
X196738296Y-96765196D01*
X196713297Y-96639521D01*
X196664778Y-96522386D01*
X196659977Y-96461389D01*
X196691947Y-96409220D01*
X196748475Y-96385805D01*
X196756242Y-96385500D01*
X199015226Y-96385500D01*
X199073417Y-96404407D01*
G37*
%TD.AperFunction*%
%TA.AperFunction,Conductor*%
G36*
X182303247Y-79951646D02*
G01*
X182324424Y-80009050D01*
X182324500Y-80012936D01*
X182324500Y-91803455D01*
X182305593Y-91861646D01*
X182295503Y-91873459D01*
X181997604Y-92171357D01*
X181943088Y-92199134D01*
X181917907Y-92199877D01*
X181914076Y-92199500D01*
X181914069Y-92199500D01*
X181785931Y-92199500D01*
X181785930Y-92199500D01*
X181739731Y-92208690D01*
X181660256Y-92224499D01*
X181660255Y-92224499D01*
X181660252Y-92224500D01*
X181541874Y-92273534D01*
X181541866Y-92273538D01*
X181435331Y-92344724D01*
X181435327Y-92344727D01*
X181344727Y-92435327D01*
X181344725Y-92435330D01*
X181273538Y-92541866D01*
X181273534Y-92541874D01*
X181224500Y-92660252D01*
X181224499Y-92660257D01*
X181199500Y-92785930D01*
X181199500Y-92914073D01*
X181199877Y-92917904D01*
X181186760Y-92977667D01*
X181171357Y-92997603D01*
X180473459Y-93695503D01*
X180418942Y-93723281D01*
X180403455Y-93724500D01*
X179849436Y-93724500D01*
X179750564Y-93724500D01*
X179692113Y-93740161D01*
X179655058Y-93750090D01*
X179569442Y-93799521D01*
X179569441Y-93799522D01*
X177547604Y-95821357D01*
X177493087Y-95849134D01*
X177467904Y-95849877D01*
X177464073Y-95849500D01*
X177464069Y-95849500D01*
X177335931Y-95849500D01*
X177335930Y-95849500D01*
X177289731Y-95858690D01*
X177210256Y-95874499D01*
X177210255Y-95874499D01*
X177210252Y-95874500D01*
X177091874Y-95923534D01*
X177091866Y-95923538D01*
X176985331Y-95994724D01*
X176985327Y-95994727D01*
X176984551Y-95995504D01*
X176984102Y-95995732D01*
X176981562Y-95997817D01*
X176981104Y-95997259D01*
X176930034Y-96023281D01*
X176914547Y-96024500D01*
X161471240Y-96024500D01*
X161413049Y-96005593D01*
X161401236Y-95995504D01*
X159553138Y-94147406D01*
X159525361Y-94092889D01*
X159534932Y-94032457D01*
X159578197Y-93989192D01*
X159585243Y-93985943D01*
X159608127Y-93976465D01*
X159714669Y-93905276D01*
X159805276Y-93814669D01*
X159805279Y-93814663D01*
X159807708Y-93811705D01*
X159859235Y-93778711D01*
X159884244Y-93775500D01*
X170315756Y-93775500D01*
X170373947Y-93794407D01*
X170392292Y-93811705D01*
X170394723Y-93814668D01*
X170394724Y-93814669D01*
X170485331Y-93905276D01*
X170548848Y-93947717D01*
X170591866Y-93976461D01*
X170591870Y-93976463D01*
X170591873Y-93976465D01*
X170710256Y-94025501D01*
X170835931Y-94050500D01*
X170835932Y-94050500D01*
X170964068Y-94050500D01*
X170964069Y-94050500D01*
X171089744Y-94025501D01*
X171208127Y-93976465D01*
X171314669Y-93905276D01*
X171405276Y-93814669D01*
X171476465Y-93708127D01*
X171525501Y-93589744D01*
X171550500Y-93464069D01*
X171550500Y-93335931D01*
X171525501Y-93210256D01*
X171476465Y-93091873D01*
X171476463Y-93091870D01*
X171476461Y-93091866D01*
X171446007Y-93046290D01*
X171405276Y-92985331D01*
X171314669Y-92894724D01*
X171272226Y-92866365D01*
X171208133Y-92823538D01*
X171208125Y-92823534D01*
X171089747Y-92774500D01*
X171089745Y-92774499D01*
X171089744Y-92774499D01*
X170964069Y-92749500D01*
X170835931Y-92749500D01*
X170835923Y-92749500D01*
X170832091Y-92749877D01*
X170772329Y-92736758D01*
X170752394Y-92721357D01*
X169904496Y-91873459D01*
X169876719Y-91818942D01*
X169875500Y-91803455D01*
X169875500Y-88589297D01*
X172422000Y-88589297D01*
X172422000Y-88786384D01*
X172437283Y-88863214D01*
X172456662Y-88960640D01*
X172460449Y-88979675D01*
X172460449Y-88979677D01*
X172535867Y-89161754D01*
X172555992Y-89191873D01*
X172645361Y-89325623D01*
X172784718Y-89464980D01*
X172948586Y-89574473D01*
X173130665Y-89649892D01*
X173323959Y-89688341D01*
X173323960Y-89688341D01*
X173521040Y-89688341D01*
X173521041Y-89688341D01*
X173714335Y-89649892D01*
X173896414Y-89574473D01*
X174060282Y-89464980D01*
X174199639Y-89325623D01*
X174309132Y-89161755D01*
X174384551Y-88979676D01*
X174423000Y-88786382D01*
X174423000Y-88589300D01*
X174384551Y-88396006D01*
X174309132Y-88213927D01*
X174199639Y-88050059D01*
X174060282Y-87910702D01*
X173896414Y-87801209D01*
X173896415Y-87801209D01*
X173896413Y-87801208D01*
X173714335Y-87725790D01*
X173521043Y-87687341D01*
X173521041Y-87687341D01*
X173323959Y-87687341D01*
X173323956Y-87687341D01*
X173130665Y-87725790D01*
X173130663Y-87725790D01*
X172948586Y-87801208D01*
X172784718Y-87910702D01*
X172784714Y-87910705D01*
X172645364Y-88050055D01*
X172645361Y-88050059D01*
X172535867Y-88213927D01*
X172460449Y-88396004D01*
X172460449Y-88396006D01*
X172422000Y-88589297D01*
X169875500Y-88589297D01*
X169875500Y-87696545D01*
X169894407Y-87638354D01*
X169904496Y-87626541D01*
X172392421Y-85138616D01*
X175872681Y-85138616D01*
X175872681Y-85335703D01*
X175911130Y-85528994D01*
X175911130Y-85528996D01*
X175986548Y-85711073D01*
X175986549Y-85711074D01*
X176096042Y-85874942D01*
X176235399Y-86014299D01*
X176399267Y-86123792D01*
X176581346Y-86199211D01*
X176774640Y-86237660D01*
X176774641Y-86237660D01*
X176971721Y-86237660D01*
X176971722Y-86237660D01*
X177165016Y-86199211D01*
X177347095Y-86123792D01*
X177510963Y-86014299D01*
X177650320Y-85874942D01*
X177759813Y-85711074D01*
X177835232Y-85528995D01*
X177873681Y-85335701D01*
X177873681Y-85138619D01*
X177835232Y-84945325D01*
X177759813Y-84763246D01*
X177650320Y-84599378D01*
X177510963Y-84460021D01*
X177347095Y-84350528D01*
X177347096Y-84350528D01*
X177347094Y-84350527D01*
X177165016Y-84275109D01*
X176971724Y-84236660D01*
X176971722Y-84236660D01*
X176774640Y-84236660D01*
X176774637Y-84236660D01*
X176581346Y-84275109D01*
X176581344Y-84275109D01*
X176399267Y-84350527D01*
X176235399Y-84460021D01*
X176235395Y-84460024D01*
X176096045Y-84599374D01*
X176096042Y-84599378D01*
X175986548Y-84763246D01*
X175911130Y-84945323D01*
X175911130Y-84945325D01*
X175872681Y-85138616D01*
X172392421Y-85138616D01*
X177526541Y-80004496D01*
X177581058Y-79976719D01*
X177596545Y-79975500D01*
X181015756Y-79975500D01*
X181073947Y-79994407D01*
X181092292Y-80011705D01*
X181094723Y-80014668D01*
X181094724Y-80014669D01*
X181185331Y-80105276D01*
X181248848Y-80147717D01*
X181291866Y-80176461D01*
X181291870Y-80176463D01*
X181291873Y-80176465D01*
X181410256Y-80225501D01*
X181535931Y-80250500D01*
X181535932Y-80250500D01*
X181664068Y-80250500D01*
X181664069Y-80250500D01*
X181789744Y-80225501D01*
X181908127Y-80176465D01*
X182014669Y-80105276D01*
X182105276Y-80014669D01*
X182143185Y-79957933D01*
X182191235Y-79920055D01*
X182252373Y-79917653D01*
X182303247Y-79951646D01*
G37*
%TD.AperFunction*%
%TA.AperFunction,Conductor*%
G36*
X198327957Y-94879464D02*
G01*
X198340765Y-94878711D01*
X198356346Y-94888688D01*
X198373947Y-94894407D01*
X198392292Y-94911705D01*
X198394723Y-94914668D01*
X198394724Y-94914669D01*
X198485331Y-95005276D01*
X198532003Y-95036461D01*
X198591866Y-95076461D01*
X198591870Y-95076463D01*
X198591873Y-95076465D01*
X198710256Y-95125501D01*
X198835931Y-95150500D01*
X198835932Y-95150500D01*
X198964068Y-95150500D01*
X198964069Y-95150500D01*
X199089744Y-95125501D01*
X199176247Y-95089669D01*
X199237243Y-95084869D01*
X199289412Y-95116838D01*
X199312827Y-95173366D01*
X199298544Y-95232861D01*
X199294225Y-95239325D01*
X199210474Y-95354596D01*
X199121115Y-95529975D01*
X199109381Y-95566092D01*
X199073417Y-95615592D01*
X199015227Y-95634500D01*
X195044774Y-95634500D01*
X194986583Y-95615593D01*
X194950619Y-95566093D01*
X194950619Y-95566092D01*
X194938884Y-95529975D01*
X194849525Y-95354597D01*
X194849524Y-95354595D01*
X194733828Y-95195354D01*
X194594646Y-95056172D01*
X194594642Y-95056169D01*
X194594640Y-95056167D01*
X194592472Y-95054592D01*
X194591940Y-95053860D01*
X194591688Y-95053645D01*
X194591739Y-95053584D01*
X194556508Y-95005092D01*
X194556509Y-94943907D01*
X194592473Y-94894407D01*
X194650663Y-94875500D01*
X198315756Y-94875500D01*
X198327957Y-94879464D01*
G37*
%TD.AperFunction*%
%TA.AperFunction,Conductor*%
G36*
X202010234Y-63319407D02*
G01*
X202021974Y-63329424D01*
X225707216Y-86965628D01*
X225820431Y-87078608D01*
X225848265Y-87133096D01*
X225849500Y-87148684D01*
X225849500Y-123925924D01*
X225830593Y-123984115D01*
X225781093Y-124020079D01*
X225750570Y-124024924D01*
X155973286Y-124074394D01*
X155915082Y-124055528D01*
X155903212Y-124045398D01*
X153178088Y-121320274D01*
X178887500Y-121320274D01*
X178887500Y-121519725D01*
X178926410Y-121715334D01*
X178926410Y-121715336D01*
X179002732Y-121899596D01*
X179002732Y-121899597D01*
X179113539Y-122065430D01*
X179113540Y-122065431D01*
X179254569Y-122206460D01*
X179420401Y-122317266D01*
X179604665Y-122393590D01*
X179800277Y-122432500D01*
X179800278Y-122432500D01*
X179999722Y-122432500D01*
X179999723Y-122432500D01*
X180195335Y-122393590D01*
X180379599Y-122317266D01*
X180545431Y-122206460D01*
X180686460Y-122065431D01*
X180797266Y-121899599D01*
X180873590Y-121715335D01*
X180912500Y-121519723D01*
X180912500Y-121320277D01*
X180912499Y-121320274D01*
X194127500Y-121320274D01*
X194127500Y-121519725D01*
X194166410Y-121715334D01*
X194166410Y-121715336D01*
X194242732Y-121899596D01*
X194242732Y-121899597D01*
X194353539Y-122065430D01*
X194353540Y-122065431D01*
X194494569Y-122206460D01*
X194660401Y-122317266D01*
X194844665Y-122393590D01*
X195040277Y-122432500D01*
X195040278Y-122432500D01*
X195239722Y-122432500D01*
X195239723Y-122432500D01*
X195435335Y-122393590D01*
X195619599Y-122317266D01*
X195785431Y-122206460D01*
X195926460Y-122065431D01*
X196037266Y-121899599D01*
X196113590Y-121715335D01*
X196152500Y-121519723D01*
X196152500Y-121320277D01*
X196113590Y-121124665D01*
X196037267Y-120940403D01*
X196037267Y-120940402D01*
X195926460Y-120774569D01*
X195785430Y-120633539D01*
X195619596Y-120522732D01*
X195435335Y-120446410D01*
X195239725Y-120407500D01*
X195239723Y-120407500D01*
X195040277Y-120407500D01*
X195040274Y-120407500D01*
X194844665Y-120446410D01*
X194844663Y-120446410D01*
X194660403Y-120522732D01*
X194660402Y-120522732D01*
X194494569Y-120633539D01*
X194353539Y-120774569D01*
X194242732Y-120940402D01*
X194242732Y-120940403D01*
X194166410Y-121124663D01*
X194166410Y-121124665D01*
X194127500Y-121320274D01*
X180912499Y-121320274D01*
X180873590Y-121124665D01*
X180797267Y-120940403D01*
X180797267Y-120940402D01*
X180686460Y-120774569D01*
X180545430Y-120633539D01*
X180379596Y-120522732D01*
X180195335Y-120446410D01*
X179999725Y-120407500D01*
X179999723Y-120407500D01*
X179800277Y-120407500D01*
X179800274Y-120407500D01*
X179604665Y-120446410D01*
X179604663Y-120446410D01*
X179420403Y-120522732D01*
X179420402Y-120522732D01*
X179254569Y-120633539D01*
X179113539Y-120774569D01*
X179002732Y-120940402D01*
X179002732Y-120940403D01*
X178926410Y-121124663D01*
X178926410Y-121124665D01*
X178887500Y-121320274D01*
X153178088Y-121320274D01*
X150638138Y-118780324D01*
X178888000Y-118780324D01*
X178888000Y-118979675D01*
X178926889Y-119175188D01*
X179003176Y-119359360D01*
X179085419Y-119482446D01*
X179496956Y-119070908D01*
X179544311Y-119152930D01*
X179627070Y-119235689D01*
X179709088Y-119283042D01*
X179297552Y-119694579D01*
X179420638Y-119776823D01*
X179604811Y-119853110D01*
X179800324Y-119891999D01*
X179800328Y-119892000D01*
X179999672Y-119892000D01*
X179999675Y-119891999D01*
X180195188Y-119853110D01*
X180379361Y-119776823D01*
X180502446Y-119694579D01*
X180090909Y-119283042D01*
X180172930Y-119235689D01*
X180255689Y-119152930D01*
X180303042Y-119070909D01*
X180714579Y-119482446D01*
X180796823Y-119359361D01*
X180873110Y-119175188D01*
X180911999Y-118979675D01*
X180912000Y-118979672D01*
X180912000Y-118780327D01*
X180911999Y-118780324D01*
X180911989Y-118780274D01*
X194127500Y-118780274D01*
X194127500Y-118979725D01*
X194166410Y-119175334D01*
X194166410Y-119175336D01*
X194242732Y-119359596D01*
X194242732Y-119359597D01*
X194324818Y-119482446D01*
X194353540Y-119525431D01*
X194494569Y-119666460D01*
X194660401Y-119777266D01*
X194844665Y-119853590D01*
X195040277Y-119892500D01*
X195040278Y-119892500D01*
X195239722Y-119892500D01*
X195239723Y-119892500D01*
X195435335Y-119853590D01*
X195619599Y-119777266D01*
X195785431Y-119666460D01*
X195926460Y-119525431D01*
X196037266Y-119359599D01*
X196113590Y-119175335D01*
X196152500Y-118979723D01*
X196152500Y-118780277D01*
X196113590Y-118584665D01*
X196037267Y-118400403D01*
X196037267Y-118400402D01*
X195926460Y-118234569D01*
X195785430Y-118093539D01*
X195619596Y-117982732D01*
X195435335Y-117906410D01*
X195239725Y-117867500D01*
X195239723Y-117867500D01*
X195040277Y-117867500D01*
X195040274Y-117867500D01*
X194844665Y-117906410D01*
X194844663Y-117906410D01*
X194660403Y-117982732D01*
X194660402Y-117982732D01*
X194494569Y-118093539D01*
X194353539Y-118234569D01*
X194242732Y-118400402D01*
X194242732Y-118400403D01*
X194166410Y-118584663D01*
X194166410Y-118584665D01*
X194127500Y-118780274D01*
X180911989Y-118780274D01*
X180873110Y-118584811D01*
X180796823Y-118400638D01*
X180714579Y-118277552D01*
X180303042Y-118689088D01*
X180255689Y-118607070D01*
X180172930Y-118524311D01*
X180090908Y-118476956D01*
X180502446Y-118065419D01*
X180379360Y-117983176D01*
X180195188Y-117906889D01*
X179999675Y-117868000D01*
X179800324Y-117868000D01*
X179604811Y-117906889D01*
X179420638Y-117983176D01*
X179297552Y-118065419D01*
X179709090Y-118476957D01*
X179627070Y-118524311D01*
X179544311Y-118607070D01*
X179496957Y-118689090D01*
X179085419Y-118277552D01*
X179003176Y-118400638D01*
X178926889Y-118584811D01*
X178888000Y-118780324D01*
X150638138Y-118780324D01*
X145779496Y-113921682D01*
X145751719Y-113867165D01*
X145750500Y-113851678D01*
X145750500Y-110020545D01*
X145769407Y-109962354D01*
X145818907Y-109926390D01*
X145880093Y-109926390D01*
X145919504Y-109950541D01*
X153499525Y-117530562D01*
X153499524Y-117530562D01*
X153569438Y-117600475D01*
X153655058Y-117649908D01*
X153655062Y-117649910D01*
X153694542Y-117660489D01*
X153694543Y-117660489D01*
X153750564Y-117675500D01*
X153750565Y-117675500D01*
X155415756Y-117675500D01*
X155473947Y-117694407D01*
X155492292Y-117711705D01*
X155494723Y-117714668D01*
X155494724Y-117714669D01*
X155585331Y-117805276D01*
X155648848Y-117847717D01*
X155691866Y-117876461D01*
X155691870Y-117876463D01*
X155691873Y-117876465D01*
X155810256Y-117925501D01*
X155935931Y-117950500D01*
X155935932Y-117950500D01*
X156064068Y-117950500D01*
X156064069Y-117950500D01*
X156189744Y-117925501D01*
X156308127Y-117876465D01*
X156414669Y-117805276D01*
X156505276Y-117714669D01*
X156576465Y-117608127D01*
X156625501Y-117489744D01*
X156650500Y-117364069D01*
X156650500Y-117235931D01*
X156625501Y-117110256D01*
X156576465Y-116991873D01*
X156576463Y-116991870D01*
X156576461Y-116991866D01*
X156547717Y-116948848D01*
X156505276Y-116885331D01*
X156414669Y-116794724D01*
X156372226Y-116766365D01*
X156308133Y-116723538D01*
X156308125Y-116723534D01*
X156189747Y-116674500D01*
X156189745Y-116674499D01*
X156189744Y-116674499D01*
X156064069Y-116649500D01*
X155935931Y-116649500D01*
X155935930Y-116649500D01*
X155873093Y-116661999D01*
X155810256Y-116674499D01*
X155810255Y-116674499D01*
X155810252Y-116674500D01*
X155691874Y-116723534D01*
X155691866Y-116723538D01*
X155585331Y-116794724D01*
X155585327Y-116794727D01*
X155494723Y-116885331D01*
X155492292Y-116888295D01*
X155440765Y-116921289D01*
X155415756Y-116924500D01*
X153996545Y-116924500D01*
X153938354Y-116905593D01*
X153926541Y-116895504D01*
X146604496Y-109573459D01*
X146576719Y-109518942D01*
X146575500Y-109503455D01*
X146575500Y-95890565D01*
X147124500Y-95890565D01*
X147124500Y-109474740D01*
X147136344Y-109518942D01*
X147150091Y-109570247D01*
X147199525Y-109655868D01*
X147199526Y-109655868D01*
X153674220Y-116130562D01*
X153674219Y-116130562D01*
X153744133Y-116200475D01*
X153829753Y-116249908D01*
X153829757Y-116249910D01*
X153869237Y-116260489D01*
X153869238Y-116260489D01*
X153925259Y-116275500D01*
X153925260Y-116275500D01*
X154415756Y-116275500D01*
X154473947Y-116294407D01*
X154492292Y-116311705D01*
X154494723Y-116314668D01*
X154494724Y-116314669D01*
X154585331Y-116405276D01*
X154636882Y-116439721D01*
X154691866Y-116476461D01*
X154691870Y-116476463D01*
X154691873Y-116476465D01*
X154810256Y-116525501D01*
X154935931Y-116550500D01*
X154935932Y-116550500D01*
X155064068Y-116550500D01*
X155064069Y-116550500D01*
X155189744Y-116525501D01*
X155308127Y-116476465D01*
X155414669Y-116405276D01*
X155505276Y-116314669D01*
X155554985Y-116240274D01*
X178887500Y-116240274D01*
X178887500Y-116439725D01*
X178909218Y-116548905D01*
X178918332Y-116594727D01*
X178926410Y-116635334D01*
X178926410Y-116635336D01*
X179002732Y-116819596D01*
X179002732Y-116819597D01*
X179063309Y-116910256D01*
X179113540Y-116985431D01*
X179254569Y-117126460D01*
X179420401Y-117237266D01*
X179604665Y-117313590D01*
X179800277Y-117352500D01*
X179800278Y-117352500D01*
X179999722Y-117352500D01*
X179999723Y-117352500D01*
X180195335Y-117313590D01*
X180379599Y-117237266D01*
X180545431Y-117126460D01*
X180686460Y-116985431D01*
X180797266Y-116819599D01*
X180873590Y-116635335D01*
X180912500Y-116439723D01*
X180912500Y-116240277D01*
X180912499Y-116240274D01*
X194127500Y-116240274D01*
X194127500Y-116439725D01*
X194149218Y-116548905D01*
X194158332Y-116594727D01*
X194166410Y-116635334D01*
X194166410Y-116635336D01*
X194242732Y-116819596D01*
X194242732Y-116819597D01*
X194303309Y-116910256D01*
X194353540Y-116985431D01*
X194494569Y-117126460D01*
X194660401Y-117237266D01*
X194844665Y-117313590D01*
X195040277Y-117352500D01*
X195040278Y-117352500D01*
X195239722Y-117352500D01*
X195239723Y-117352500D01*
X195435335Y-117313590D01*
X195619599Y-117237266D01*
X195785431Y-117126460D01*
X195926460Y-116985431D01*
X196037266Y-116819599D01*
X196113590Y-116635335D01*
X196152500Y-116439723D01*
X196152500Y-116240277D01*
X196113590Y-116044665D01*
X196074586Y-115950500D01*
X196037267Y-115860403D01*
X196037267Y-115860402D01*
X195926460Y-115694569D01*
X195785430Y-115553539D01*
X195619596Y-115442732D01*
X195435335Y-115366410D01*
X195239725Y-115327500D01*
X195239723Y-115327500D01*
X195040277Y-115327500D01*
X195040274Y-115327500D01*
X194844665Y-115366410D01*
X194844663Y-115366410D01*
X194660403Y-115442732D01*
X194660402Y-115442732D01*
X194494569Y-115553539D01*
X194353539Y-115694569D01*
X194242732Y-115860402D01*
X194242732Y-115860403D01*
X194166410Y-116044663D01*
X194166410Y-116044665D01*
X194127500Y-116240274D01*
X180912499Y-116240274D01*
X180873590Y-116044665D01*
X180834586Y-115950500D01*
X180797267Y-115860403D01*
X180797267Y-115860402D01*
X180686460Y-115694569D01*
X180545430Y-115553539D01*
X180379596Y-115442732D01*
X180195335Y-115366410D01*
X179999725Y-115327500D01*
X179999723Y-115327500D01*
X179800277Y-115327500D01*
X179800274Y-115327500D01*
X179604665Y-115366410D01*
X179604663Y-115366410D01*
X179420403Y-115442732D01*
X179420402Y-115442732D01*
X179254569Y-115553539D01*
X179113539Y-115694569D01*
X179002732Y-115860402D01*
X179002732Y-115860403D01*
X178926410Y-116044663D01*
X178926410Y-116044665D01*
X178887500Y-116240274D01*
X155554985Y-116240274D01*
X155576465Y-116208127D01*
X155579635Y-116200475D01*
X155580857Y-116197526D01*
X155625498Y-116089751D01*
X155625497Y-116089751D01*
X155625501Y-116089744D01*
X155650500Y-115964069D01*
X155650500Y-115835931D01*
X155625501Y-115710256D01*
X155576465Y-115591873D01*
X155576463Y-115591870D01*
X155576461Y-115591866D01*
X155547717Y-115548848D01*
X155505276Y-115485331D01*
X155414669Y-115394724D01*
X155372226Y-115366365D01*
X155308133Y-115323538D01*
X155308125Y-115323534D01*
X155189747Y-115274500D01*
X155189745Y-115274499D01*
X155189744Y-115274499D01*
X155064069Y-115249500D01*
X154949500Y-115249500D01*
X154891309Y-115230593D01*
X154855345Y-115181093D01*
X154850500Y-115150500D01*
X154850500Y-115035932D01*
X154850500Y-115035931D01*
X154825501Y-114910256D01*
X154776465Y-114791873D01*
X154776463Y-114791870D01*
X154776461Y-114791866D01*
X154742309Y-114740755D01*
X154705276Y-114685331D01*
X154614669Y-114594724D01*
X154572226Y-114566365D01*
X154508133Y-114523538D01*
X154508125Y-114523534D01*
X154389747Y-114474500D01*
X154389745Y-114474499D01*
X154389744Y-114474499D01*
X154264069Y-114449500D01*
X154135931Y-114449500D01*
X154135923Y-114449500D01*
X154132091Y-114449877D01*
X154072329Y-114436758D01*
X154052394Y-114421357D01*
X153331311Y-113700274D01*
X178887500Y-113700274D01*
X178887500Y-113899725D01*
X178926410Y-114095334D01*
X178926410Y-114095336D01*
X179002732Y-114279596D01*
X179002732Y-114279597D01*
X179097454Y-114421357D01*
X179113540Y-114445431D01*
X179254569Y-114586460D01*
X179420401Y-114697266D01*
X179604665Y-114773590D01*
X179800277Y-114812500D01*
X179800278Y-114812500D01*
X179999722Y-114812500D01*
X179999723Y-114812500D01*
X180195335Y-114773590D01*
X180379599Y-114697266D01*
X180545431Y-114586460D01*
X180686460Y-114445431D01*
X180797266Y-114279599D01*
X180873590Y-114095335D01*
X180912500Y-113899723D01*
X180912500Y-113700277D01*
X180912499Y-113700274D01*
X194127500Y-113700274D01*
X194127500Y-113899725D01*
X194166410Y-114095334D01*
X194166410Y-114095336D01*
X194242732Y-114279596D01*
X194242732Y-114279597D01*
X194337454Y-114421357D01*
X194353540Y-114445431D01*
X194494569Y-114586460D01*
X194660401Y-114697266D01*
X194844665Y-114773590D01*
X195040277Y-114812500D01*
X195040278Y-114812500D01*
X195239722Y-114812500D01*
X195239723Y-114812500D01*
X195435335Y-114773590D01*
X195619599Y-114697266D01*
X195785431Y-114586460D01*
X195926460Y-114445431D01*
X196037266Y-114279599D01*
X196113590Y-114095335D01*
X196152500Y-113899723D01*
X196152500Y-113700277D01*
X196113590Y-113504665D01*
X196037267Y-113320403D01*
X196037267Y-113320402D01*
X195926460Y-113154569D01*
X195785430Y-113013539D01*
X195619596Y-112902732D01*
X195435335Y-112826410D01*
X195239725Y-112787500D01*
X195239723Y-112787500D01*
X195040277Y-112787500D01*
X195040274Y-112787500D01*
X194844665Y-112826410D01*
X194844663Y-112826410D01*
X194660403Y-112902732D01*
X194660402Y-112902732D01*
X194494569Y-113013539D01*
X194353539Y-113154569D01*
X194242732Y-113320402D01*
X194242732Y-113320403D01*
X194166410Y-113504663D01*
X194166410Y-113504665D01*
X194127500Y-113700274D01*
X180912499Y-113700274D01*
X180873590Y-113504665D01*
X180797267Y-113320403D01*
X180797267Y-113320402D01*
X180686460Y-113154569D01*
X180545430Y-113013539D01*
X180379596Y-112902732D01*
X180195335Y-112826410D01*
X179999725Y-112787500D01*
X179999723Y-112787500D01*
X179800277Y-112787500D01*
X179800274Y-112787500D01*
X179604665Y-112826410D01*
X179604663Y-112826410D01*
X179420403Y-112902732D01*
X179420402Y-112902732D01*
X179254569Y-113013539D01*
X179113539Y-113154569D01*
X179002732Y-113320402D01*
X179002732Y-113320403D01*
X178926410Y-113504663D01*
X178926410Y-113504665D01*
X178887500Y-113700274D01*
X153331311Y-113700274D01*
X150791311Y-111160274D01*
X178887500Y-111160274D01*
X178887500Y-111359725D01*
X178926410Y-111555334D01*
X178926410Y-111555336D01*
X179002732Y-111739596D01*
X179002732Y-111739597D01*
X179113539Y-111905430D01*
X179113540Y-111905431D01*
X179254569Y-112046460D01*
X179420401Y-112157266D01*
X179604665Y-112233590D01*
X179800277Y-112272500D01*
X179800278Y-112272500D01*
X179999722Y-112272500D01*
X179999723Y-112272500D01*
X180195335Y-112233590D01*
X180379599Y-112157266D01*
X180545431Y-112046460D01*
X180686460Y-111905431D01*
X180797266Y-111739599D01*
X180873590Y-111555335D01*
X180912500Y-111359723D01*
X180912500Y-111160277D01*
X180912499Y-111160274D01*
X194127500Y-111160274D01*
X194127500Y-111359725D01*
X194166410Y-111555334D01*
X194166410Y-111555336D01*
X194242732Y-111739596D01*
X194242732Y-111739597D01*
X194353539Y-111905430D01*
X194353540Y-111905431D01*
X194494569Y-112046460D01*
X194660401Y-112157266D01*
X194844665Y-112233590D01*
X195040277Y-112272500D01*
X195040278Y-112272500D01*
X195239722Y-112272500D01*
X195239723Y-112272500D01*
X195435335Y-112233590D01*
X195619599Y-112157266D01*
X195785431Y-112046460D01*
X195926460Y-111905431D01*
X196037266Y-111739599D01*
X196113590Y-111555335D01*
X196152500Y-111359723D01*
X196152500Y-111160277D01*
X196113590Y-110964665D01*
X196039308Y-110785331D01*
X196037267Y-110780403D01*
X196037267Y-110780402D01*
X195926460Y-110614569D01*
X195785430Y-110473539D01*
X195619596Y-110362732D01*
X195435335Y-110286410D01*
X195239725Y-110247500D01*
X195239723Y-110247500D01*
X195040277Y-110247500D01*
X195040274Y-110247500D01*
X194844665Y-110286410D01*
X194844663Y-110286410D01*
X194660403Y-110362732D01*
X194660402Y-110362732D01*
X194494569Y-110473539D01*
X194353539Y-110614569D01*
X194242732Y-110780402D01*
X194242732Y-110780403D01*
X194166410Y-110964663D01*
X194166410Y-110964665D01*
X194127500Y-111160274D01*
X180912499Y-111160274D01*
X180873590Y-110964665D01*
X180799308Y-110785331D01*
X180797267Y-110780403D01*
X180797267Y-110780402D01*
X180686460Y-110614569D01*
X180545430Y-110473539D01*
X180379596Y-110362732D01*
X180195335Y-110286410D01*
X179999725Y-110247500D01*
X179999723Y-110247500D01*
X179800277Y-110247500D01*
X179800274Y-110247500D01*
X179604665Y-110286410D01*
X179604663Y-110286410D01*
X179420403Y-110362732D01*
X179420402Y-110362732D01*
X179254569Y-110473539D01*
X179113539Y-110614569D01*
X179002732Y-110780402D01*
X179002732Y-110780403D01*
X178926410Y-110964663D01*
X178926410Y-110964665D01*
X178887500Y-111160274D01*
X150791311Y-111160274D01*
X148454036Y-108822999D01*
X168878080Y-108822999D01*
X168878080Y-109019840D01*
X168908869Y-109214241D01*
X168969696Y-109401445D01*
X169057340Y-109573459D01*
X169059056Y-109576825D01*
X169174752Y-109736066D01*
X169313934Y-109875248D01*
X169473175Y-109990944D01*
X169648555Y-110080304D01*
X169835754Y-110141129D01*
X169835755Y-110141129D01*
X169835758Y-110141130D01*
X170030160Y-110171920D01*
X170030163Y-110171920D01*
X170227000Y-110171920D01*
X170421401Y-110141130D01*
X170421402Y-110141129D01*
X170421406Y-110141129D01*
X170608605Y-110080304D01*
X170783985Y-109990944D01*
X170943226Y-109875248D01*
X171082408Y-109736066D01*
X171198104Y-109576825D01*
X171287464Y-109401445D01*
X171348289Y-109214246D01*
X171350609Y-109199597D01*
X171379080Y-109019840D01*
X171379080Y-108822999D01*
X171348656Y-108630911D01*
X171348655Y-108630904D01*
X171348485Y-108629836D01*
X171348289Y-108628594D01*
X171345586Y-108620274D01*
X178887500Y-108620274D01*
X178887500Y-108819725D01*
X178888152Y-108823003D01*
X178926236Y-109014462D01*
X178926410Y-109015334D01*
X178926410Y-109015336D01*
X179002732Y-109199596D01*
X179002732Y-109199597D01*
X179113539Y-109365430D01*
X179113540Y-109365431D01*
X179254569Y-109506460D01*
X179420401Y-109617266D01*
X179420402Y-109617266D01*
X179420403Y-109617267D01*
X179462146Y-109634557D01*
X179604665Y-109693590D01*
X179800277Y-109732500D01*
X179800278Y-109732500D01*
X179999722Y-109732500D01*
X179999723Y-109732500D01*
X180195335Y-109693590D01*
X180379599Y-109617266D01*
X180545431Y-109506460D01*
X180686460Y-109365431D01*
X180797266Y-109199599D01*
X180873590Y-109015335D01*
X180912500Y-108819723D01*
X180912500Y-108620277D01*
X180912499Y-108620274D01*
X194127500Y-108620274D01*
X194127500Y-108819725D01*
X194128152Y-108823003D01*
X194166236Y-109014462D01*
X194166410Y-109015334D01*
X194166410Y-109015336D01*
X194242732Y-109199596D01*
X194242732Y-109199597D01*
X194353539Y-109365430D01*
X194353540Y-109365431D01*
X194494569Y-109506460D01*
X194660401Y-109617266D01*
X194660402Y-109617266D01*
X194660403Y-109617267D01*
X194702146Y-109634557D01*
X194844665Y-109693590D01*
X195040277Y-109732500D01*
X195040278Y-109732500D01*
X195239722Y-109732500D01*
X195239723Y-109732500D01*
X195264734Y-109727525D01*
X201989500Y-109727525D01*
X201989500Y-109872474D01*
X202027017Y-110012489D01*
X202099487Y-110138010D01*
X202099489Y-110138012D01*
X202099491Y-110138015D01*
X202201985Y-110240509D01*
X202201987Y-110240510D01*
X202201989Y-110240512D01*
X202327511Y-110312982D01*
X202327512Y-110312982D01*
X202327515Y-110312984D01*
X202467525Y-110350500D01*
X202467526Y-110350500D01*
X202612474Y-110350500D01*
X202612475Y-110350500D01*
X202752485Y-110312984D01*
X202752487Y-110312982D01*
X202752489Y-110312982D01*
X202878010Y-110240512D01*
X202878010Y-110240511D01*
X202878015Y-110240509D01*
X202980509Y-110138015D01*
X203052984Y-110012485D01*
X203090500Y-109872475D01*
X203090500Y-109727525D01*
X203052984Y-109587515D01*
X203052982Y-109587512D01*
X203052982Y-109587510D01*
X202978764Y-109458961D01*
X202965500Y-109409461D01*
X202965500Y-106254031D01*
X202984407Y-106195840D01*
X202986641Y-106193223D01*
X202986560Y-106193161D01*
X202990505Y-106188018D01*
X202990509Y-106188015D01*
X202992441Y-106184669D01*
X203062982Y-106062489D01*
X203062982Y-106062487D01*
X203062984Y-106062485D01*
X203100500Y-105922475D01*
X203100500Y-105777525D01*
X203062984Y-105637515D01*
X203062982Y-105637512D01*
X203062982Y-105637510D01*
X202990512Y-105511989D01*
X202990510Y-105511987D01*
X202990509Y-105511985D01*
X202888015Y-105409491D01*
X202888012Y-105409489D01*
X202888010Y-105409487D01*
X202762488Y-105337017D01*
X202762489Y-105337017D01*
X202732896Y-105329087D01*
X202622475Y-105299500D01*
X202477525Y-105299500D01*
X202415790Y-105316041D01*
X202337510Y-105337017D01*
X202211989Y-105409487D01*
X202109487Y-105511989D01*
X202037017Y-105637510D01*
X201999500Y-105777525D01*
X201999500Y-105922474D01*
X202037017Y-106062489D01*
X202101236Y-106173718D01*
X202114500Y-106223218D01*
X202114500Y-109409461D01*
X202101236Y-109458961D01*
X202027017Y-109587510D01*
X201989500Y-109727525D01*
X195264734Y-109727525D01*
X195435335Y-109693590D01*
X195545810Y-109647829D01*
X195589890Y-109629572D01*
X195604465Y-109623534D01*
X195619599Y-109617266D01*
X195785431Y-109506460D01*
X195926460Y-109365431D01*
X196037266Y-109199599D01*
X196113590Y-109015335D01*
X196152500Y-108819723D01*
X196152500Y-108620277D01*
X196113590Y-108424665D01*
X196075428Y-108332533D01*
X196037267Y-108240403D01*
X196037267Y-108240402D01*
X195926460Y-108074569D01*
X195785430Y-107933539D01*
X195619596Y-107822732D01*
X195435335Y-107746410D01*
X195239725Y-107707500D01*
X195239723Y-107707500D01*
X195040277Y-107707500D01*
X195040274Y-107707500D01*
X194844665Y-107746410D01*
X194844663Y-107746410D01*
X194660403Y-107822732D01*
X194660402Y-107822732D01*
X194494569Y-107933539D01*
X194353539Y-108074569D01*
X194242732Y-108240402D01*
X194242732Y-108240403D01*
X194166410Y-108424663D01*
X194166410Y-108424665D01*
X194127500Y-108620274D01*
X180912499Y-108620274D01*
X180873590Y-108424665D01*
X180835428Y-108332533D01*
X180797267Y-108240403D01*
X180797267Y-108240402D01*
X180686460Y-108074569D01*
X180545430Y-107933539D01*
X180379596Y-107822732D01*
X180195335Y-107746410D01*
X179999725Y-107707500D01*
X179999723Y-107707500D01*
X179800277Y-107707500D01*
X179800274Y-107707500D01*
X179604665Y-107746410D01*
X179604663Y-107746410D01*
X179420403Y-107822732D01*
X179420402Y-107822732D01*
X179254569Y-107933539D01*
X179113539Y-108074569D01*
X179002732Y-108240402D01*
X179002732Y-108240403D01*
X178926410Y-108424663D01*
X178926410Y-108424665D01*
X178887500Y-108620274D01*
X171345586Y-108620274D01*
X171287464Y-108441395D01*
X171198104Y-108266015D01*
X171082408Y-108106774D01*
X170943226Y-107967592D01*
X170783985Y-107851896D01*
X170783984Y-107851895D01*
X170783982Y-107851894D01*
X170608605Y-107762536D01*
X170421401Y-107701709D01*
X170227000Y-107670920D01*
X170226997Y-107670920D01*
X170030163Y-107670920D01*
X170030160Y-107670920D01*
X169835758Y-107701709D01*
X169648554Y-107762536D01*
X169473177Y-107851894D01*
X169313935Y-107967591D01*
X169174751Y-108106775D01*
X169059054Y-108266017D01*
X168969696Y-108441394D01*
X168908869Y-108628598D01*
X168878080Y-108822999D01*
X148454036Y-108822999D01*
X148404496Y-108773459D01*
X148376719Y-108718942D01*
X148375500Y-108703455D01*
X148375500Y-105641018D01*
X172060061Y-105641018D01*
X172060061Y-105837859D01*
X172090850Y-106032260D01*
X172151677Y-106219464D01*
X172216386Y-106346465D01*
X172241037Y-106394844D01*
X172356733Y-106554085D01*
X172495915Y-106693267D01*
X172655156Y-106808963D01*
X172830536Y-106898323D01*
X173017735Y-106959148D01*
X173017736Y-106959148D01*
X173017739Y-106959149D01*
X173212141Y-106989939D01*
X173212144Y-106989939D01*
X173408981Y-106989939D01*
X173603382Y-106959149D01*
X173603383Y-106959148D01*
X173603387Y-106959148D01*
X173790586Y-106898323D01*
X173965966Y-106808963D01*
X174125207Y-106693267D01*
X174264389Y-106554085D01*
X174380085Y-106394844D01*
X174469445Y-106219464D01*
X174514671Y-106080274D01*
X178887500Y-106080274D01*
X178887500Y-106279725D01*
X178926410Y-106475334D01*
X178926410Y-106475336D01*
X179002732Y-106659596D01*
X179002732Y-106659597D01*
X179025230Y-106693267D01*
X179113540Y-106825431D01*
X179254569Y-106966460D01*
X179420401Y-107077266D01*
X179604665Y-107153590D01*
X179800277Y-107192500D01*
X179800278Y-107192500D01*
X179999722Y-107192500D01*
X179999723Y-107192500D01*
X180195335Y-107153590D01*
X180379599Y-107077266D01*
X180545431Y-106966460D01*
X180686460Y-106825431D01*
X180797266Y-106659599D01*
X180873590Y-106475335D01*
X180912500Y-106279723D01*
X180912500Y-106080277D01*
X180912499Y-106080274D01*
X194127500Y-106080274D01*
X194127500Y-106279725D01*
X194166410Y-106475334D01*
X194166410Y-106475336D01*
X194242732Y-106659596D01*
X194242732Y-106659597D01*
X194265230Y-106693267D01*
X194353540Y-106825431D01*
X194494569Y-106966460D01*
X194660401Y-107077266D01*
X194844665Y-107153590D01*
X195040277Y-107192500D01*
X195040278Y-107192500D01*
X195239722Y-107192500D01*
X195239723Y-107192500D01*
X195435335Y-107153590D01*
X195619599Y-107077266D01*
X195785431Y-106966460D01*
X195926460Y-106825431D01*
X196037266Y-106659599D01*
X196113590Y-106475335D01*
X196152500Y-106279723D01*
X196152500Y-106080277D01*
X196113590Y-105884665D01*
X196037267Y-105700403D01*
X196037267Y-105700402D01*
X195926460Y-105534569D01*
X195785430Y-105393539D01*
X195619596Y-105282732D01*
X195435335Y-105206410D01*
X195239725Y-105167500D01*
X195239723Y-105167500D01*
X195040277Y-105167500D01*
X195040274Y-105167500D01*
X194844665Y-105206410D01*
X194844663Y-105206410D01*
X194660403Y-105282732D01*
X194660402Y-105282732D01*
X194494569Y-105393539D01*
X194353539Y-105534569D01*
X194242732Y-105700402D01*
X194242732Y-105700403D01*
X194166410Y-105884663D01*
X194166410Y-105884665D01*
X194127500Y-106080274D01*
X180912499Y-106080274D01*
X180873590Y-105884665D01*
X180797267Y-105700403D01*
X180797267Y-105700402D01*
X180686460Y-105534569D01*
X180545430Y-105393539D01*
X180379596Y-105282732D01*
X180195335Y-105206410D01*
X179999725Y-105167500D01*
X179999723Y-105167500D01*
X179800277Y-105167500D01*
X179800274Y-105167500D01*
X179604665Y-105206410D01*
X179604663Y-105206410D01*
X179420403Y-105282732D01*
X179420402Y-105282732D01*
X179254569Y-105393539D01*
X179113539Y-105534569D01*
X179002732Y-105700402D01*
X179002732Y-105700403D01*
X178926410Y-105884663D01*
X178926410Y-105884665D01*
X178887500Y-106080274D01*
X174514671Y-106080274D01*
X174530270Y-106032265D01*
X174547659Y-105922474D01*
X174561061Y-105837859D01*
X174561061Y-105641018D01*
X174530271Y-105446617D01*
X174521204Y-105418711D01*
X174469445Y-105259414D01*
X174380085Y-105084034D01*
X174264389Y-104924793D01*
X174125207Y-104785611D01*
X173965966Y-104669915D01*
X173965965Y-104669914D01*
X173965963Y-104669913D01*
X173790586Y-104580555D01*
X173603382Y-104519728D01*
X173408981Y-104488939D01*
X173408978Y-104488939D01*
X173212144Y-104488939D01*
X173212141Y-104488939D01*
X173017739Y-104519728D01*
X172830535Y-104580555D01*
X172655158Y-104669913D01*
X172495916Y-104785610D01*
X172356732Y-104924794D01*
X172241035Y-105084036D01*
X172151677Y-105259413D01*
X172090850Y-105446617D01*
X172060061Y-105641018D01*
X148375500Y-105641018D01*
X148375500Y-104401456D01*
X150999500Y-104401456D01*
X150999500Y-104598543D01*
X151037949Y-104791834D01*
X151037949Y-104791836D01*
X151113367Y-104973913D01*
X151117854Y-104980628D01*
X151222861Y-105137782D01*
X151362218Y-105277139D01*
X151526086Y-105386632D01*
X151708165Y-105462051D01*
X151901459Y-105500500D01*
X151901460Y-105500500D01*
X152098540Y-105500500D01*
X152098541Y-105500500D01*
X152291835Y-105462051D01*
X152473914Y-105386632D01*
X152637782Y-105277139D01*
X152777139Y-105137782D01*
X152886632Y-104973914D01*
X152962051Y-104791835D01*
X153000500Y-104598541D01*
X153000500Y-104401459D01*
X152979424Y-104295504D01*
X152968828Y-104242233D01*
X152968828Y-104242230D01*
X152965759Y-104226805D01*
X164281886Y-104226805D01*
X164281886Y-104423646D01*
X164312675Y-104618047D01*
X164373502Y-104805251D01*
X164459439Y-104973914D01*
X164462862Y-104980631D01*
X164578558Y-105139872D01*
X164717740Y-105279054D01*
X164876981Y-105394750D01*
X165052361Y-105484110D01*
X165239560Y-105544935D01*
X165239561Y-105544935D01*
X165239564Y-105544936D01*
X165433966Y-105575726D01*
X165433969Y-105575726D01*
X165630806Y-105575726D01*
X165776609Y-105552632D01*
X165825212Y-105544935D01*
X166012411Y-105484110D01*
X166187791Y-105394750D01*
X166347032Y-105279054D01*
X166486214Y-105139872D01*
X166601910Y-104980631D01*
X166691270Y-104805251D01*
X166752095Y-104618052D01*
X166756247Y-104591836D01*
X166782886Y-104423646D01*
X166782886Y-104226805D01*
X166752096Y-104032404D01*
X166750043Y-104026086D01*
X166691270Y-103845201D01*
X166601910Y-103669821D01*
X166486214Y-103510580D01*
X166347032Y-103371398D01*
X166187791Y-103255702D01*
X166187790Y-103255701D01*
X166187788Y-103255700D01*
X166012411Y-103166342D01*
X165825207Y-103105515D01*
X165630806Y-103074726D01*
X165630803Y-103074726D01*
X165433969Y-103074726D01*
X165433966Y-103074726D01*
X165239564Y-103105515D01*
X165052360Y-103166342D01*
X164876983Y-103255700D01*
X164717741Y-103371397D01*
X164578557Y-103510581D01*
X164462860Y-103669823D01*
X164373502Y-103845200D01*
X164312675Y-104032404D01*
X164281886Y-104226805D01*
X152965759Y-104226805D01*
X152962053Y-104208173D01*
X152962050Y-104208163D01*
X152886632Y-104026086D01*
X152777139Y-103862218D01*
X152637782Y-103722861D01*
X152492071Y-103625500D01*
X152473913Y-103613367D01*
X152291835Y-103537949D01*
X152098543Y-103499500D01*
X152098541Y-103499500D01*
X151901459Y-103499500D01*
X151901456Y-103499500D01*
X151708165Y-103537949D01*
X151708163Y-103537949D01*
X151526086Y-103613367D01*
X151362218Y-103722861D01*
X151362214Y-103722864D01*
X151222864Y-103862214D01*
X151222861Y-103862218D01*
X151113367Y-104026086D01*
X151037949Y-104208163D01*
X151037949Y-104208165D01*
X150999500Y-104401456D01*
X148375500Y-104401456D01*
X148375500Y-100950775D01*
X154450181Y-100950775D01*
X154450181Y-101147862D01*
X154488630Y-101341153D01*
X154488630Y-101341155D01*
X154564048Y-101523232D01*
X154571675Y-101534646D01*
X154673542Y-101687101D01*
X154812899Y-101826458D01*
X154976767Y-101935951D01*
X155158846Y-102011370D01*
X155352140Y-102049819D01*
X155352141Y-102049819D01*
X155549221Y-102049819D01*
X155549222Y-102049819D01*
X155742516Y-102011370D01*
X155924595Y-101935951D01*
X156088463Y-101826458D01*
X156227820Y-101687101D01*
X156337313Y-101523233D01*
X156412732Y-101341154D01*
X156451181Y-101147860D01*
X156451181Y-100950778D01*
X156412732Y-100757484D01*
X156389119Y-100700476D01*
X156362238Y-100635578D01*
X156348154Y-100601579D01*
X162149500Y-100601579D01*
X162149500Y-100798420D01*
X162180289Y-100992821D01*
X162241116Y-101180025D01*
X162323214Y-101341154D01*
X162330476Y-101355405D01*
X162446172Y-101514646D01*
X162585354Y-101653828D01*
X162744595Y-101769524D01*
X162919975Y-101858884D01*
X163107174Y-101919709D01*
X163107175Y-101919709D01*
X163107178Y-101919710D01*
X163301580Y-101950500D01*
X163301583Y-101950500D01*
X163498420Y-101950500D01*
X163692821Y-101919710D01*
X163692822Y-101919709D01*
X163692826Y-101919709D01*
X163880025Y-101858884D01*
X164055405Y-101769524D01*
X164214646Y-101653828D01*
X164353828Y-101514646D01*
X164469524Y-101355405D01*
X164558884Y-101180025D01*
X164619709Y-100992826D01*
X164619710Y-100992821D01*
X164650500Y-100798420D01*
X164650500Y-100601579D01*
X164619710Y-100407178D01*
X164599964Y-100346407D01*
X164558884Y-100219975D01*
X164469524Y-100044595D01*
X164353828Y-99885354D01*
X164214646Y-99746172D01*
X164055405Y-99630476D01*
X164055404Y-99630475D01*
X164055402Y-99630474D01*
X163880025Y-99541116D01*
X163692821Y-99480289D01*
X163498420Y-99449500D01*
X163498417Y-99449500D01*
X163301583Y-99449500D01*
X163301580Y-99449500D01*
X163107178Y-99480289D01*
X162919974Y-99541116D01*
X162744597Y-99630474D01*
X162585355Y-99746171D01*
X162446171Y-99885355D01*
X162330474Y-100044597D01*
X162241116Y-100219974D01*
X162180289Y-100407178D01*
X162149500Y-100601579D01*
X156348154Y-100601579D01*
X156346514Y-100597619D01*
X156337313Y-100575405D01*
X156227820Y-100411537D01*
X156088463Y-100272180D01*
X155964598Y-100189416D01*
X155924594Y-100162686D01*
X155742516Y-100087268D01*
X155549224Y-100048819D01*
X155549222Y-100048819D01*
X155352140Y-100048819D01*
X155352137Y-100048819D01*
X155158846Y-100087268D01*
X155158844Y-100087268D01*
X154976767Y-100162686D01*
X154812899Y-100272180D01*
X154812895Y-100272183D01*
X154673545Y-100411533D01*
X154673542Y-100411537D01*
X154564048Y-100575405D01*
X154488630Y-100757482D01*
X154488630Y-100757484D01*
X154450181Y-100950775D01*
X148375500Y-100950775D01*
X148375500Y-98096545D01*
X148394407Y-98038354D01*
X148404496Y-98026541D01*
X150721599Y-95709438D01*
X153075475Y-93355563D01*
X153124911Y-93269937D01*
X153150500Y-93174436D01*
X153150500Y-93075564D01*
X153150500Y-92917393D01*
X153169407Y-92859202D01*
X153218907Y-92823238D01*
X153280093Y-92823238D01*
X153307691Y-92837301D01*
X153417928Y-92917393D01*
X153423212Y-92921232D01*
X153520444Y-92970773D01*
X153563709Y-93014037D01*
X153574500Y-93058983D01*
X153574500Y-93924547D01*
X153555593Y-93982738D01*
X153545504Y-93994551D01*
X153494727Y-94045327D01*
X153494724Y-94045331D01*
X153423538Y-94151866D01*
X153423534Y-94151874D01*
X153374500Y-94270252D01*
X153374499Y-94270257D01*
X153349500Y-94395930D01*
X153349500Y-94524069D01*
X153374499Y-94649742D01*
X153374500Y-94649747D01*
X153423534Y-94768125D01*
X153423538Y-94768133D01*
X153466365Y-94832226D01*
X153494724Y-94874669D01*
X153585331Y-94965276D01*
X153645189Y-95005272D01*
X153691866Y-95036461D01*
X153691870Y-95036463D01*
X153691873Y-95036465D01*
X153810256Y-95085501D01*
X153935931Y-95110500D01*
X153935932Y-95110500D01*
X154064068Y-95110500D01*
X154064069Y-95110500D01*
X154189744Y-95085501D01*
X154308127Y-95036465D01*
X154414669Y-94965276D01*
X154505276Y-94874669D01*
X154576465Y-94768127D01*
X154625501Y-94649744D01*
X154650500Y-94524069D01*
X154650500Y-94395931D01*
X154625501Y-94270256D01*
X154576465Y-94151873D01*
X154576463Y-94151870D01*
X154576461Y-94151866D01*
X154526079Y-94076465D01*
X154505276Y-94045331D01*
X154454496Y-93994551D01*
X154426719Y-93940034D01*
X154425500Y-93924547D01*
X154425500Y-93058983D01*
X154444407Y-93000792D01*
X154479554Y-92970774D01*
X154576788Y-92921232D01*
X154716928Y-92819414D01*
X154839414Y-92696928D01*
X154845407Y-92688679D01*
X154894905Y-92652715D01*
X154956090Y-92652714D01*
X155005591Y-92688676D01*
X155024500Y-92746867D01*
X155024500Y-95749435D01*
X155050090Y-95844938D01*
X155050091Y-95844940D01*
X155058030Y-95858690D01*
X155093268Y-95919724D01*
X155099526Y-95930563D01*
X157199525Y-98030562D01*
X157199524Y-98030562D01*
X157269438Y-98100475D01*
X157355058Y-98149908D01*
X157355062Y-98149910D01*
X157402812Y-98162705D01*
X157402813Y-98162705D01*
X157450564Y-98175500D01*
X157450565Y-98175500D01*
X165174576Y-98175500D01*
X165232767Y-98194407D01*
X165244580Y-98204496D01*
X167554517Y-100514433D01*
X167582294Y-100568950D01*
X167572723Y-100629381D01*
X167555483Y-100663216D01*
X167494655Y-100850423D01*
X167463866Y-101044824D01*
X167463866Y-101241665D01*
X167494655Y-101436066D01*
X167555482Y-101623270D01*
X167644666Y-101798306D01*
X167644842Y-101798650D01*
X167760538Y-101957891D01*
X167899720Y-102097073D01*
X168058961Y-102212769D01*
X168234341Y-102302129D01*
X168421540Y-102362954D01*
X168421541Y-102362954D01*
X168421544Y-102362955D01*
X168615946Y-102393745D01*
X168615949Y-102393745D01*
X168812786Y-102393745D01*
X169007187Y-102362955D01*
X169007188Y-102362954D01*
X169007192Y-102362954D01*
X169194391Y-102302129D01*
X169369771Y-102212769D01*
X169529012Y-102097073D01*
X169668194Y-101957891D01*
X169783890Y-101798650D01*
X169873250Y-101623270D01*
X169934075Y-101436071D01*
X169934076Y-101436066D01*
X169964866Y-101241665D01*
X169964866Y-101044824D01*
X169934076Y-100850423D01*
X169934075Y-100850419D01*
X169873250Y-100663220D01*
X169783890Y-100487840D01*
X169668194Y-100328599D01*
X169529012Y-100189417D01*
X169369771Y-100073721D01*
X169369770Y-100073720D01*
X169369768Y-100073719D01*
X169194391Y-99984361D01*
X169007187Y-99923534D01*
X168812786Y-99892745D01*
X168812783Y-99892745D01*
X168615949Y-99892745D01*
X168615946Y-99892745D01*
X168421544Y-99923534D01*
X168234337Y-99984362D01*
X168200502Y-100001602D01*
X168140070Y-100011173D01*
X168085554Y-99983396D01*
X165601684Y-97499526D01*
X165601684Y-97499525D01*
X165516062Y-97450091D01*
X165516055Y-97450088D01*
X165468306Y-97437294D01*
X165468305Y-97437294D01*
X165420559Y-97424500D01*
X165420557Y-97424500D01*
X165420556Y-97424500D01*
X157696545Y-97424500D01*
X157638354Y-97405593D01*
X157626541Y-97395504D01*
X155804496Y-95573459D01*
X155776719Y-95518942D01*
X155775500Y-95503455D01*
X155775500Y-91279605D01*
X155794407Y-91221414D01*
X155843907Y-91185450D01*
X155905093Y-91185450D01*
X155929502Y-91197290D01*
X155991866Y-91238961D01*
X155991870Y-91238963D01*
X155991873Y-91238965D01*
X156110256Y-91288001D01*
X156235931Y-91313000D01*
X156235932Y-91313000D01*
X156364059Y-91313000D01*
X156364069Y-91313000D01*
X156364078Y-91312998D01*
X156367881Y-91312623D01*
X156380415Y-91315370D01*
X156393087Y-91313364D01*
X156409571Y-91321763D01*
X156427647Y-91325726D01*
X156447604Y-91341141D01*
X156495504Y-91389041D01*
X156523281Y-91443558D01*
X156524500Y-91459045D01*
X156524500Y-92749438D01*
X156537294Y-92797184D01*
X156537294Y-92797185D01*
X156550088Y-92844934D01*
X156550090Y-92844938D01*
X156595463Y-92923528D01*
X156595464Y-92923528D01*
X156595468Y-92923535D01*
X156599526Y-92930563D01*
X160769438Y-97100475D01*
X160769440Y-97100476D01*
X160769442Y-97100478D01*
X160833390Y-97137398D01*
X160855063Y-97149911D01*
X160855067Y-97149912D01*
X160866671Y-97155634D01*
X160943362Y-97199911D01*
X161038863Y-97225500D01*
X161038864Y-97225500D01*
X176053455Y-97225500D01*
X176111646Y-97244407D01*
X176123458Y-97254495D01*
X176682090Y-97813128D01*
X176724903Y-97837845D01*
X176767715Y-97862563D01*
X176807196Y-97873142D01*
X176824431Y-97877760D01*
X176830297Y-97880169D01*
X176849024Y-97896066D01*
X176869624Y-97909443D01*
X176875003Y-97916745D01*
X176882069Y-97927320D01*
X176972669Y-98017921D01*
X176972673Y-98017924D01*
X176972678Y-98017929D01*
X177030211Y-98056371D01*
X177079213Y-98089114D01*
X177079217Y-98089116D01*
X177079220Y-98089118D01*
X177197603Y-98138154D01*
X177323278Y-98163153D01*
X177323279Y-98163153D01*
X177451415Y-98163153D01*
X177451416Y-98163153D01*
X177577091Y-98138154D01*
X177695474Y-98089118D01*
X177802016Y-98017929D01*
X177892623Y-97927322D01*
X177892626Y-97927316D01*
X177895055Y-97924358D01*
X177946582Y-97891364D01*
X177971591Y-97888153D01*
X178773178Y-97888153D01*
X178773179Y-97888153D01*
X178829200Y-97873142D01*
X178868681Y-97862563D01*
X178954305Y-97813128D01*
X179024218Y-97743215D01*
X179024217Y-97743215D01*
X183079999Y-93687433D01*
X183134512Y-93659659D01*
X183194944Y-93669230D01*
X183220003Y-93687436D01*
X183263129Y-93730562D01*
X183263128Y-93730562D01*
X183333042Y-93800475D01*
X183418662Y-93849908D01*
X183418666Y-93849910D01*
X183458146Y-93860489D01*
X183458147Y-93860489D01*
X183514168Y-93875500D01*
X183514169Y-93875500D01*
X198365547Y-93875500D01*
X198387057Y-93882488D01*
X198409431Y-93885758D01*
X198415572Y-93891753D01*
X198423738Y-93894407D01*
X198437032Y-93912704D01*
X198453211Y-93928500D01*
X198454655Y-93936960D01*
X198459702Y-93943907D01*
X198459702Y-93966523D01*
X198463507Y-93988813D01*
X198459702Y-93996392D01*
X198459702Y-94005093D01*
X198436385Y-94043659D01*
X198435931Y-94044123D01*
X198394724Y-94085331D01*
X198392605Y-94088501D01*
X198386594Y-94094659D01*
X198363104Y-94106984D01*
X198340765Y-94121289D01*
X198334249Y-94122125D01*
X198332415Y-94123088D01*
X198329766Y-94122701D01*
X198315756Y-94124500D01*
X192249436Y-94124500D01*
X192150564Y-94124500D01*
X192102813Y-94137295D01*
X192102812Y-94137294D01*
X192055062Y-94150089D01*
X192055058Y-94150091D01*
X191969436Y-94199525D01*
X191969437Y-94199526D01*
X190869438Y-95299525D01*
X190869437Y-95299524D01*
X190799524Y-95369438D01*
X190750089Y-95455061D01*
X190750089Y-95455062D01*
X190750090Y-95455063D01*
X190737124Y-95503455D01*
X190724694Y-95549843D01*
X190724677Y-95549907D01*
X190724500Y-95550563D01*
X190724500Y-98003454D01*
X190705593Y-98061645D01*
X190695504Y-98073458D01*
X188773459Y-99995504D01*
X188718942Y-100023281D01*
X188703455Y-100024500D01*
X182184244Y-100024500D01*
X182126053Y-100005593D01*
X182107708Y-99988295D01*
X182105276Y-99985331D01*
X182014672Y-99894727D01*
X182014669Y-99894724D01*
X181965464Y-99861846D01*
X181908133Y-99823538D01*
X181908125Y-99823534D01*
X181789747Y-99774500D01*
X181789745Y-99774499D01*
X181789744Y-99774499D01*
X181664069Y-99749500D01*
X181535931Y-99749500D01*
X181535930Y-99749500D01*
X181473093Y-99761999D01*
X181410256Y-99774499D01*
X181410255Y-99774499D01*
X181410252Y-99774500D01*
X181291874Y-99823534D01*
X181291866Y-99823538D01*
X181185331Y-99894724D01*
X181185327Y-99894727D01*
X181094727Y-99985327D01*
X181094724Y-99985331D01*
X181023538Y-100091866D01*
X181023534Y-100091874D01*
X180974500Y-100210252D01*
X180974499Y-100210255D01*
X180974499Y-100210256D01*
X180949500Y-100335931D01*
X180949500Y-100464069D01*
X180969635Y-100565293D01*
X180974499Y-100589742D01*
X180974500Y-100589747D01*
X181023534Y-100708125D01*
X181023538Y-100708133D01*
X181051452Y-100749908D01*
X181094724Y-100814669D01*
X181185331Y-100905276D01*
X181248848Y-100947717D01*
X181291866Y-100976461D01*
X181291870Y-100976463D01*
X181291873Y-100976465D01*
X181410256Y-101025501D01*
X181535931Y-101050500D01*
X181535932Y-101050500D01*
X181664068Y-101050500D01*
X181664069Y-101050500D01*
X181789744Y-101025501D01*
X181908127Y-100976465D01*
X182014669Y-100905276D01*
X182105276Y-100814669D01*
X182105279Y-100814663D01*
X182107708Y-100811705D01*
X182159235Y-100778711D01*
X182184244Y-100775500D01*
X188949435Y-100775500D01*
X188949436Y-100775500D01*
X189005457Y-100760489D01*
X189044938Y-100749910D01*
X189130562Y-100700475D01*
X189200475Y-100630562D01*
X189200474Y-100630562D01*
X191400475Y-98430563D01*
X191445856Y-98351959D01*
X191449910Y-98344938D01*
X191475500Y-98249435D01*
X191475500Y-95796545D01*
X191494407Y-95738354D01*
X191504496Y-95726541D01*
X192326541Y-94904496D01*
X192381058Y-94876719D01*
X192396545Y-94875500D01*
X192909337Y-94875500D01*
X192967528Y-94894407D01*
X193003492Y-94943907D01*
X193003492Y-95005093D01*
X192968260Y-95053584D01*
X192968312Y-95053645D01*
X192968059Y-95053860D01*
X192967528Y-95054592D01*
X192965359Y-95056167D01*
X192826171Y-95195355D01*
X192710474Y-95354597D01*
X192621116Y-95529974D01*
X192560289Y-95717178D01*
X192529500Y-95911579D01*
X192529500Y-96108420D01*
X192560289Y-96302821D01*
X192621116Y-96490025D01*
X192697287Y-96639521D01*
X192710476Y-96665405D01*
X192826172Y-96824646D01*
X192965354Y-96963828D01*
X193124595Y-97079524D01*
X193299975Y-97168884D01*
X193487174Y-97229709D01*
X193487175Y-97229709D01*
X193487178Y-97229710D01*
X193681580Y-97260500D01*
X193681583Y-97260500D01*
X193878419Y-97260500D01*
X193916590Y-97254454D01*
X193969631Y-97246053D01*
X194030063Y-97255624D01*
X194073327Y-97298888D01*
X194082899Y-97359320D01*
X194055122Y-97413837D01*
X194055122Y-97413838D01*
X191389285Y-100079678D01*
X191389284Y-100079677D01*
X191319371Y-100149591D01*
X191269938Y-100235210D01*
X191244347Y-100330719D01*
X191244347Y-101170602D01*
X191225440Y-101228793D01*
X191208149Y-101247133D01*
X191205177Y-101249571D01*
X191114574Y-101340174D01*
X191114571Y-101340178D01*
X191043385Y-101446713D01*
X191043381Y-101446721D01*
X190994347Y-101565099D01*
X190994346Y-101565102D01*
X190994346Y-101565103D01*
X190991477Y-101579525D01*
X190969347Y-101690777D01*
X190969347Y-101718608D01*
X190950440Y-101776799D01*
X190940351Y-101788612D01*
X188833459Y-103895504D01*
X188778942Y-103923281D01*
X188763455Y-103924500D01*
X181684244Y-103924500D01*
X181626053Y-103905593D01*
X181607708Y-103888295D01*
X181605276Y-103885331D01*
X181514672Y-103794727D01*
X181514669Y-103794724D01*
X181472226Y-103766365D01*
X181408133Y-103723538D01*
X181408125Y-103723534D01*
X181289747Y-103674500D01*
X181289745Y-103674499D01*
X181289744Y-103674499D01*
X181164069Y-103649500D01*
X181035931Y-103649500D01*
X181035930Y-103649500D01*
X180973093Y-103661999D01*
X180910256Y-103674499D01*
X180910255Y-103674499D01*
X180910252Y-103674500D01*
X180791874Y-103723534D01*
X180791866Y-103723538D01*
X180685331Y-103794724D01*
X180685327Y-103794727D01*
X180594723Y-103885331D01*
X180592292Y-103888295D01*
X180540765Y-103921289D01*
X180515756Y-103924500D01*
X178484244Y-103924500D01*
X178426053Y-103905593D01*
X178407708Y-103888295D01*
X178405276Y-103885331D01*
X178314672Y-103794727D01*
X178314669Y-103794724D01*
X178272226Y-103766365D01*
X178208133Y-103723538D01*
X178208125Y-103723534D01*
X178089747Y-103674500D01*
X178089745Y-103674499D01*
X178089744Y-103674499D01*
X177964069Y-103649500D01*
X177835931Y-103649500D01*
X177835930Y-103649500D01*
X177773093Y-103661999D01*
X177710256Y-103674499D01*
X177710255Y-103674499D01*
X177710252Y-103674500D01*
X177591874Y-103723534D01*
X177591866Y-103723538D01*
X177485331Y-103794724D01*
X177485327Y-103794727D01*
X177394727Y-103885327D01*
X177394724Y-103885331D01*
X177323538Y-103991866D01*
X177323534Y-103991874D01*
X177274500Y-104110252D01*
X177274499Y-104110257D01*
X177251315Y-104226809D01*
X177249500Y-104235931D01*
X177249500Y-104364069D01*
X177261350Y-104423643D01*
X177274499Y-104489742D01*
X177274500Y-104489747D01*
X177323534Y-104608125D01*
X177323538Y-104608133D01*
X177351453Y-104649910D01*
X177394724Y-104714669D01*
X177485331Y-104805276D01*
X177548848Y-104847717D01*
X177591866Y-104876461D01*
X177591870Y-104876463D01*
X177591873Y-104876465D01*
X177710256Y-104925501D01*
X177835931Y-104950500D01*
X177835932Y-104950500D01*
X177964068Y-104950500D01*
X177964069Y-104950500D01*
X178089744Y-104925501D01*
X178208127Y-104876465D01*
X178314669Y-104805276D01*
X178405276Y-104714669D01*
X178405279Y-104714663D01*
X178407708Y-104711705D01*
X178459235Y-104678711D01*
X178484244Y-104675500D01*
X180515756Y-104675500D01*
X180573947Y-104694407D01*
X180592292Y-104711705D01*
X180594723Y-104714668D01*
X180594724Y-104714669D01*
X180685331Y-104805276D01*
X180748848Y-104847717D01*
X180791866Y-104876461D01*
X180791870Y-104876463D01*
X180791873Y-104876465D01*
X180910256Y-104925501D01*
X181035931Y-104950500D01*
X181035932Y-104950500D01*
X181164068Y-104950500D01*
X181164069Y-104950500D01*
X181201184Y-104943117D01*
X181261945Y-104950307D01*
X181306876Y-104991838D01*
X181319500Y-105040214D01*
X181319500Y-105104069D01*
X181339857Y-105206410D01*
X181344499Y-105229742D01*
X181344500Y-105229747D01*
X181393534Y-105348125D01*
X181393538Y-105348133D01*
X181419263Y-105386632D01*
X181464724Y-105454669D01*
X181555331Y-105545276D01*
X181600903Y-105575726D01*
X181661866Y-105616461D01*
X181661870Y-105616463D01*
X181661873Y-105616465D01*
X181780256Y-105665501D01*
X181905931Y-105690500D01*
X181905932Y-105690500D01*
X182034068Y-105690500D01*
X182034069Y-105690500D01*
X182159744Y-105665501D01*
X182278127Y-105616465D01*
X182384669Y-105545276D01*
X182475276Y-105454669D01*
X182475279Y-105454663D01*
X182477708Y-105451705D01*
X182529235Y-105418711D01*
X182554244Y-105415500D01*
X189409435Y-105415500D01*
X189409436Y-105415500D01*
X189465457Y-105400489D01*
X189504938Y-105389910D01*
X189590562Y-105340475D01*
X189660475Y-105270562D01*
X191452396Y-103478639D01*
X191506911Y-103450864D01*
X191532115Y-103450123D01*
X191535925Y-103450498D01*
X191535931Y-103450500D01*
X191535937Y-103450500D01*
X191664068Y-103450500D01*
X191664069Y-103450500D01*
X191789744Y-103425501D01*
X191908127Y-103376465D01*
X192014669Y-103305276D01*
X192105276Y-103214669D01*
X192105279Y-103214663D01*
X192107708Y-103211705D01*
X192159235Y-103178711D01*
X192184244Y-103175500D01*
X194933455Y-103175500D01*
X194991646Y-103194407D01*
X195003459Y-103204496D01*
X197387909Y-105588946D01*
X197415686Y-105643463D01*
X197415003Y-105678264D01*
X197409500Y-105705927D01*
X197409500Y-105705931D01*
X197409500Y-105834069D01*
X197427085Y-105922474D01*
X197434499Y-105959742D01*
X197434500Y-105959747D01*
X197483534Y-106078125D01*
X197483538Y-106078133D01*
X197495841Y-106096545D01*
X197554724Y-106184669D01*
X197645331Y-106275276D01*
X197708848Y-106317717D01*
X197751866Y-106346461D01*
X197751870Y-106346463D01*
X197751873Y-106346465D01*
X197870256Y-106395501D01*
X197995931Y-106420500D01*
X197995932Y-106420500D01*
X198124068Y-106420500D01*
X198124069Y-106420500D01*
X198249744Y-106395501D01*
X198368127Y-106346465D01*
X198474669Y-106275276D01*
X198565276Y-106184669D01*
X198636465Y-106078127D01*
X198685501Y-105959744D01*
X198710500Y-105834069D01*
X198710500Y-105705931D01*
X198710498Y-105705925D01*
X198710123Y-105702115D01*
X198723228Y-105642349D01*
X198738642Y-105622394D01*
X199256542Y-105104496D01*
X199311058Y-105076719D01*
X199326545Y-105075500D01*
X203954455Y-105075500D01*
X204012646Y-105094407D01*
X204048610Y-105143907D01*
X204048610Y-105205093D01*
X204024459Y-105244504D01*
X203669438Y-105599525D01*
X203669437Y-105599524D01*
X203599524Y-105669438D01*
X203550089Y-105755061D01*
X203550090Y-105755062D01*
X203550090Y-105755063D01*
X203530196Y-105829309D01*
X203524500Y-105850565D01*
X203524500Y-109219435D01*
X203550090Y-109314938D01*
X203585269Y-109375869D01*
X203599526Y-109400563D01*
X204668399Y-110469437D01*
X204891133Y-110692171D01*
X204918910Y-110746688D01*
X204909339Y-110807120D01*
X204903445Y-110817176D01*
X204853537Y-110891868D01*
X204853534Y-110891874D01*
X204804500Y-111010252D01*
X204804499Y-111010255D01*
X204804499Y-111010256D01*
X204779500Y-111135931D01*
X204779500Y-111264069D01*
X204803165Y-111383040D01*
X204804499Y-111389742D01*
X204804500Y-111389747D01*
X204853534Y-111508125D01*
X204853538Y-111508133D01*
X204885078Y-111555335D01*
X204924724Y-111614669D01*
X205015331Y-111705276D01*
X205066695Y-111739596D01*
X205121866Y-111776461D01*
X205121870Y-111776463D01*
X205121873Y-111776465D01*
X205240256Y-111825501D01*
X205365931Y-111850500D01*
X205365932Y-111850500D01*
X205494068Y-111850500D01*
X205494069Y-111850500D01*
X205619744Y-111825501D01*
X205738127Y-111776465D01*
X205844669Y-111705276D01*
X205935276Y-111614669D01*
X206006465Y-111508127D01*
X206055501Y-111389744D01*
X206080500Y-111264069D01*
X206080500Y-111135931D01*
X206055501Y-111010256D01*
X206006465Y-110891873D01*
X206006462Y-110891868D01*
X206006461Y-110891866D01*
X205956554Y-110817176D01*
X205935276Y-110785331D01*
X205844669Y-110694724D01*
X205842352Y-110693176D01*
X205841566Y-110692179D01*
X205840918Y-110691647D01*
X205841034Y-110691504D01*
X205804473Y-110645129D01*
X205801732Y-110636504D01*
X205779911Y-110555063D01*
X205730475Y-110469437D01*
X204304496Y-109043458D01*
X204276719Y-108988941D01*
X204275500Y-108973454D01*
X204275500Y-107652137D01*
X207218819Y-107652137D01*
X207218819Y-107849224D01*
X207257268Y-108042515D01*
X207257268Y-108042517D01*
X207332686Y-108224594D01*
X207360363Y-108266015D01*
X207442180Y-108388463D01*
X207581537Y-108527820D01*
X207745405Y-108637313D01*
X207927484Y-108712732D01*
X208120778Y-108751181D01*
X208120779Y-108751181D01*
X208317859Y-108751181D01*
X208317860Y-108751181D01*
X208511154Y-108712732D01*
X208693233Y-108637313D01*
X208857101Y-108527820D01*
X208996458Y-108388463D01*
X209105951Y-108224595D01*
X209181370Y-108042516D01*
X209219819Y-107849222D01*
X209219819Y-107652140D01*
X209181370Y-107458846D01*
X209105951Y-107276767D01*
X208996458Y-107112899D01*
X208857101Y-106973542D01*
X208693233Y-106864049D01*
X208693234Y-106864049D01*
X208693232Y-106864048D01*
X208511154Y-106788630D01*
X208317862Y-106750181D01*
X208317860Y-106750181D01*
X208120778Y-106750181D01*
X208120775Y-106750181D01*
X207927484Y-106788630D01*
X207927482Y-106788630D01*
X207745405Y-106864048D01*
X207581537Y-106973542D01*
X207581533Y-106973545D01*
X207442183Y-107112895D01*
X207442180Y-107112899D01*
X207332686Y-107276767D01*
X207257268Y-107458844D01*
X207257268Y-107458846D01*
X207218819Y-107652137D01*
X204275500Y-107652137D01*
X204275500Y-106096545D01*
X204294407Y-106038354D01*
X204304496Y-106026541D01*
X206129581Y-104201456D01*
X210669500Y-104201456D01*
X210669500Y-104398543D01*
X210707949Y-104591834D01*
X210707949Y-104591836D01*
X210783367Y-104773913D01*
X210795342Y-104791834D01*
X210892861Y-104937782D01*
X211032218Y-105077139D01*
X211196086Y-105186632D01*
X211378165Y-105262051D01*
X211571459Y-105300500D01*
X211571460Y-105300500D01*
X211768540Y-105300500D01*
X211768541Y-105300500D01*
X211961835Y-105262051D01*
X212143914Y-105186632D01*
X212307782Y-105077139D01*
X212447139Y-104937782D01*
X212556632Y-104773914D01*
X212632051Y-104591835D01*
X212670500Y-104398541D01*
X212670500Y-104201459D01*
X212632051Y-104008165D01*
X212556632Y-103826086D01*
X212447139Y-103662218D01*
X212307782Y-103522861D01*
X212185731Y-103441309D01*
X212143913Y-103413367D01*
X211961835Y-103337949D01*
X211768543Y-103299500D01*
X211768541Y-103299500D01*
X211571459Y-103299500D01*
X211571456Y-103299500D01*
X211378165Y-103337949D01*
X211378163Y-103337949D01*
X211196086Y-103413367D01*
X211032218Y-103522861D01*
X211032214Y-103522864D01*
X210892864Y-103662214D01*
X210892861Y-103662218D01*
X210783367Y-103826086D01*
X210707949Y-104008163D01*
X210707949Y-104008165D01*
X210669500Y-104201456D01*
X206129581Y-104201456D01*
X206204446Y-104126591D01*
X207243702Y-103087335D01*
X210225475Y-100105563D01*
X210274911Y-100019937D01*
X210300500Y-99924436D01*
X210300500Y-99825564D01*
X210300500Y-99275565D01*
X210296196Y-99259501D01*
X210274911Y-99180063D01*
X210225475Y-99094437D01*
X209730563Y-98599526D01*
X209730563Y-98599525D01*
X209644941Y-98550091D01*
X209644937Y-98550089D01*
X209592539Y-98536049D01*
X209592538Y-98536049D01*
X209549438Y-98524500D01*
X209549436Y-98524500D01*
X209549435Y-98524500D01*
X203396545Y-98524500D01*
X203338354Y-98505593D01*
X203326541Y-98495504D01*
X203055193Y-98224156D01*
X203027416Y-98169639D01*
X203036987Y-98109207D01*
X203080252Y-98065942D01*
X203140684Y-98056371D01*
X203150825Y-98058527D01*
X203166416Y-98062705D01*
X203166417Y-98062705D01*
X203214168Y-98075500D01*
X203214169Y-98075500D01*
X210067059Y-98075500D01*
X210125250Y-98094407D01*
X210137063Y-98104496D01*
X215445504Y-103412937D01*
X215473281Y-103467454D01*
X215474500Y-103482941D01*
X215474500Y-106417058D01*
X215455593Y-106475249D01*
X215445504Y-106487062D01*
X210619438Y-111313129D01*
X210619437Y-111313128D01*
X210549525Y-111383040D01*
X210506326Y-111457864D01*
X210490594Y-111478366D01*
X210344438Y-111624524D01*
X210274524Y-111694438D01*
X210225091Y-111780057D01*
X210225090Y-111780062D01*
X210206217Y-111850499D01*
X210199500Y-111875566D01*
X210199500Y-116624436D01*
X210199499Y-116624436D01*
X210206215Y-116649500D01*
X210225089Y-116719937D01*
X210227168Y-116723538D01*
X210266622Y-116791873D01*
X210274526Y-116805563D01*
X210799525Y-117330562D01*
X210799524Y-117330562D01*
X210869436Y-117400473D01*
X210869438Y-117400475D01*
X210920581Y-117430002D01*
X210933224Y-117437302D01*
X210966038Y-117468036D01*
X210997198Y-117514669D01*
X211087805Y-117605276D01*
X211151322Y-117647717D01*
X211194340Y-117676461D01*
X211194344Y-117676463D01*
X211194347Y-117676465D01*
X211312730Y-117725501D01*
X211438405Y-117750500D01*
X211438406Y-117750500D01*
X211566542Y-117750500D01*
X211566543Y-117750500D01*
X211692218Y-117725501D01*
X211810601Y-117676465D01*
X211917143Y-117605276D01*
X212007750Y-117514669D01*
X212078939Y-117408127D01*
X212127975Y-117289744D01*
X212152974Y-117164069D01*
X212152974Y-117035931D01*
X212127975Y-116910256D01*
X212078939Y-116791873D01*
X212078937Y-116791870D01*
X212078935Y-116791866D01*
X212033276Y-116723534D01*
X212007750Y-116685331D01*
X211917143Y-116594724D01*
X211874700Y-116566365D01*
X211810607Y-116523538D01*
X211810599Y-116523534D01*
X211692221Y-116474500D01*
X211692219Y-116474499D01*
X211692218Y-116474499D01*
X211566543Y-116449500D01*
X211438405Y-116449500D01*
X211438404Y-116449500D01*
X211375567Y-116461999D01*
X211312730Y-116474499D01*
X211312729Y-116474499D01*
X211312726Y-116474500D01*
X211194345Y-116523535D01*
X211178110Y-116534383D01*
X211172314Y-116536017D01*
X211168056Y-116540276D01*
X211143322Y-116544193D01*
X211119221Y-116550990D01*
X211113570Y-116548905D01*
X211107624Y-116549847D01*
X211085310Y-116538478D01*
X211061818Y-116529810D01*
X211053107Y-116522070D01*
X210979496Y-116448459D01*
X210951719Y-116393942D01*
X210950500Y-116378455D01*
X210950500Y-116007491D01*
X210969407Y-115949300D01*
X211018907Y-115913336D01*
X211080093Y-115913336D01*
X211087371Y-115916022D01*
X211110256Y-115925501D01*
X211235931Y-115950500D01*
X211235932Y-115950500D01*
X211364068Y-115950500D01*
X211364069Y-115950500D01*
X211489744Y-115925501D01*
X211608127Y-115876465D01*
X211714669Y-115805276D01*
X211805276Y-115714669D01*
X211876465Y-115608127D01*
X211925501Y-115489744D01*
X211950500Y-115364069D01*
X211950500Y-115235931D01*
X211925501Y-115110256D01*
X211876465Y-114991873D01*
X211876463Y-114991870D01*
X211876461Y-114991866D01*
X211847717Y-114948848D01*
X211805276Y-114885331D01*
X211714669Y-114794724D01*
X211711698Y-114792286D01*
X211678709Y-114740755D01*
X211675500Y-114715755D01*
X211675500Y-111996545D01*
X211694407Y-111938354D01*
X211704496Y-111926541D01*
X214127582Y-109503455D01*
X216600475Y-107030563D01*
X216649911Y-106944937D01*
X216675500Y-106849436D01*
X216675500Y-106750564D01*
X216675500Y-103803560D01*
X218797519Y-103803560D01*
X218797519Y-104000401D01*
X218828308Y-104194802D01*
X218889135Y-104382006D01*
X218964827Y-104530562D01*
X218978495Y-104557386D01*
X219094191Y-104716627D01*
X219233373Y-104855809D01*
X219392614Y-104971505D01*
X219567994Y-105060865D01*
X219755193Y-105121690D01*
X219755194Y-105121690D01*
X219755197Y-105121691D01*
X219949599Y-105152481D01*
X219949602Y-105152481D01*
X220146439Y-105152481D01*
X220340840Y-105121691D01*
X220340841Y-105121690D01*
X220340845Y-105121690D01*
X220528044Y-105060865D01*
X220703424Y-104971505D01*
X220862665Y-104855809D01*
X221001847Y-104716627D01*
X221117543Y-104557386D01*
X221206903Y-104382006D01*
X221267728Y-104194807D01*
X221267729Y-104194802D01*
X221298519Y-104000401D01*
X221298519Y-103803560D01*
X221267729Y-103609159D01*
X221264916Y-103600501D01*
X221206903Y-103421956D01*
X221117543Y-103246576D01*
X221001847Y-103087335D01*
X220862665Y-102948153D01*
X220703424Y-102832457D01*
X220703423Y-102832456D01*
X220703421Y-102832455D01*
X220528044Y-102743097D01*
X220340840Y-102682270D01*
X220146439Y-102651481D01*
X220146436Y-102651481D01*
X219949602Y-102651481D01*
X219949599Y-102651481D01*
X219755197Y-102682270D01*
X219567993Y-102743097D01*
X219392616Y-102832455D01*
X219233374Y-102948152D01*
X219094190Y-103087336D01*
X218978493Y-103246578D01*
X218889135Y-103421955D01*
X218828308Y-103609159D01*
X218797519Y-103803560D01*
X216675500Y-103803560D01*
X216675500Y-103050565D01*
X216670140Y-103030563D01*
X216649910Y-102955063D01*
X216649910Y-102955062D01*
X216649910Y-102955061D01*
X216600475Y-102869438D01*
X216530562Y-102799524D01*
X216530562Y-102799525D01*
X214352616Y-100621579D01*
X221979500Y-100621579D01*
X221979500Y-100818420D01*
X222010289Y-101012821D01*
X222071116Y-101200025D01*
X222150285Y-101355405D01*
X222160476Y-101375405D01*
X222276172Y-101534646D01*
X222415354Y-101673828D01*
X222574595Y-101789524D01*
X222749975Y-101878884D01*
X222937174Y-101939709D01*
X222937175Y-101939709D01*
X222937178Y-101939710D01*
X223131580Y-101970500D01*
X223131583Y-101970500D01*
X223328420Y-101970500D01*
X223522821Y-101939710D01*
X223522822Y-101939709D01*
X223522826Y-101939709D01*
X223710025Y-101878884D01*
X223885405Y-101789524D01*
X224044646Y-101673828D01*
X224183828Y-101534646D01*
X224299524Y-101375405D01*
X224388884Y-101200025D01*
X224449709Y-101012826D01*
X224452877Y-100992826D01*
X224480500Y-100818420D01*
X224480500Y-100621579D01*
X224449710Y-100427178D01*
X224448443Y-100423278D01*
X224388884Y-100239975D01*
X224299524Y-100064595D01*
X224183828Y-99905354D01*
X224044646Y-99766172D01*
X223885405Y-99650476D01*
X223885404Y-99650475D01*
X223885402Y-99650474D01*
X223710025Y-99561116D01*
X223522821Y-99500289D01*
X223328420Y-99469500D01*
X223328417Y-99469500D01*
X223131583Y-99469500D01*
X223131580Y-99469500D01*
X222937178Y-99500289D01*
X222749974Y-99561116D01*
X222574597Y-99650474D01*
X222415355Y-99766171D01*
X222276171Y-99905355D01*
X222160474Y-100064597D01*
X222071116Y-100239974D01*
X222010289Y-100427178D01*
X221979500Y-100621579D01*
X214352616Y-100621579D01*
X212938403Y-99207366D01*
X214201325Y-99207366D01*
X214201325Y-99404207D01*
X214232114Y-99598608D01*
X214292941Y-99785812D01*
X214353850Y-99905355D01*
X214382301Y-99961192D01*
X214497997Y-100120433D01*
X214637179Y-100259615D01*
X214796420Y-100375311D01*
X214971800Y-100464671D01*
X215158999Y-100525496D01*
X215159000Y-100525496D01*
X215159003Y-100525497D01*
X215353405Y-100556287D01*
X215353408Y-100556287D01*
X215550245Y-100556287D01*
X215696048Y-100533193D01*
X215744651Y-100525496D01*
X215931850Y-100464671D01*
X216107230Y-100375311D01*
X216266471Y-100259615D01*
X216405653Y-100120433D01*
X216521349Y-99961192D01*
X216610709Y-99785812D01*
X216671534Y-99598613D01*
X216682258Y-99530904D01*
X216702325Y-99404207D01*
X216702325Y-99207366D01*
X216671535Y-99012965D01*
X216671534Y-99012961D01*
X216610709Y-98825762D01*
X216521349Y-98650382D01*
X216405653Y-98491141D01*
X216266471Y-98351959D01*
X216107230Y-98236263D01*
X216107229Y-98236262D01*
X216107227Y-98236261D01*
X215931850Y-98146903D01*
X215744646Y-98086076D01*
X215550245Y-98055287D01*
X215550242Y-98055287D01*
X215353408Y-98055287D01*
X215353405Y-98055287D01*
X215159003Y-98086076D01*
X214971799Y-98146903D01*
X214796422Y-98236261D01*
X214637180Y-98351958D01*
X214497996Y-98491142D01*
X214382299Y-98650384D01*
X214292941Y-98825761D01*
X214232114Y-99012965D01*
X214201325Y-99207366D01*
X212938403Y-99207366D01*
X210680563Y-96949526D01*
X210680563Y-96949525D01*
X210594941Y-96900091D01*
X210594937Y-96900089D01*
X210541724Y-96885830D01*
X210541724Y-96885831D01*
X210502048Y-96875200D01*
X210499436Y-96874500D01*
X210499435Y-96874500D01*
X204316070Y-96874500D01*
X204314559Y-96874009D01*
X204313036Y-96874453D01*
X204285611Y-96864603D01*
X204257879Y-96855593D01*
X204256945Y-96854308D01*
X204255452Y-96853772D01*
X204239054Y-96829682D01*
X204221915Y-96806093D01*
X204221915Y-96804504D01*
X204221022Y-96803193D01*
X204221915Y-96786853D01*
X204221915Y-96744907D01*
X204222897Y-96742036D01*
X204225668Y-96734318D01*
X204226465Y-96733127D01*
X204275501Y-96614744D01*
X204284049Y-96571772D01*
X204286538Y-96564842D01*
X204300983Y-96546189D01*
X204312511Y-96525607D01*
X204319374Y-96522442D01*
X204324002Y-96516468D01*
X204346648Y-96509869D01*
X204368076Y-96499992D01*
X204379711Y-96499306D01*
X217369031Y-96499306D01*
X217427222Y-96518213D01*
X217463186Y-96567713D01*
X217463186Y-96567714D01*
X217474920Y-96603830D01*
X217562390Y-96775500D01*
X217564281Y-96779211D01*
X217679977Y-96938452D01*
X217819159Y-97077634D01*
X217978400Y-97193330D01*
X218153780Y-97282690D01*
X218340979Y-97343515D01*
X218340980Y-97343515D01*
X218340983Y-97343516D01*
X218535385Y-97374306D01*
X218535388Y-97374306D01*
X218732225Y-97374306D01*
X218926626Y-97343516D01*
X218926627Y-97343515D01*
X218926631Y-97343515D01*
X219113830Y-97282690D01*
X219289210Y-97193330D01*
X219448451Y-97077634D01*
X219587633Y-96938452D01*
X219703329Y-96779211D01*
X219792689Y-96603831D01*
X219853514Y-96416632D01*
X219853515Y-96416627D01*
X219884305Y-96222226D01*
X219884305Y-96025385D01*
X219853515Y-95830984D01*
X219850387Y-95821357D01*
X219792689Y-95643781D01*
X219703329Y-95468401D01*
X219587633Y-95309160D01*
X219448451Y-95169978D01*
X219289210Y-95054282D01*
X219289209Y-95054281D01*
X219289207Y-95054280D01*
X219193022Y-95005272D01*
X219113830Y-94964922D01*
X219113827Y-94964921D01*
X219113360Y-94964683D01*
X219070096Y-94921418D01*
X219059305Y-94876473D01*
X219059305Y-89901579D01*
X221099500Y-89901579D01*
X221099500Y-90098420D01*
X221130289Y-90292821D01*
X221191116Y-90480025D01*
X221260176Y-90615565D01*
X221280476Y-90655405D01*
X221396172Y-90814646D01*
X221535354Y-90953828D01*
X221694595Y-91069524D01*
X221869975Y-91158884D01*
X222057174Y-91219709D01*
X222057175Y-91219709D01*
X222057178Y-91219710D01*
X222251580Y-91250500D01*
X222251583Y-91250500D01*
X222448420Y-91250500D01*
X222642821Y-91219710D01*
X222642822Y-91219709D01*
X222642826Y-91219709D01*
X222830025Y-91158884D01*
X223005405Y-91069524D01*
X223164646Y-90953828D01*
X223303828Y-90814646D01*
X223419524Y-90655405D01*
X223508884Y-90480025D01*
X223569709Y-90292826D01*
X223572279Y-90276601D01*
X223600500Y-90098420D01*
X223600500Y-89901579D01*
X223569710Y-89707178D01*
X223569709Y-89707174D01*
X223508884Y-89519975D01*
X223419524Y-89344595D01*
X223303828Y-89185354D01*
X223164646Y-89046172D01*
X223005405Y-88930476D01*
X223005404Y-88930475D01*
X223005402Y-88930474D01*
X222830025Y-88841116D01*
X222642821Y-88780289D01*
X222448420Y-88749500D01*
X222448417Y-88749500D01*
X222251583Y-88749500D01*
X222251580Y-88749500D01*
X222057178Y-88780289D01*
X221869974Y-88841116D01*
X221694597Y-88930474D01*
X221535355Y-89046171D01*
X221396171Y-89185355D01*
X221280474Y-89344597D01*
X221191116Y-89519974D01*
X221130289Y-89707178D01*
X221099500Y-89901579D01*
X219059305Y-89901579D01*
X219059305Y-83964507D01*
X219059305Y-83964506D01*
X219030308Y-83856287D01*
X219030306Y-83856284D01*
X219030306Y-83856282D01*
X218974291Y-83759263D01*
X218974290Y-83759261D01*
X218895068Y-83680039D01*
X218895065Y-83680037D01*
X217898427Y-82683399D01*
X217870650Y-82628882D01*
X217874277Y-82582801D01*
X217874436Y-82582309D01*
X217874441Y-82582301D01*
X217935266Y-82395102D01*
X217963559Y-82216465D01*
X217966057Y-82200696D01*
X217966057Y-82003855D01*
X217935267Y-81809454D01*
X217918415Y-81757588D01*
X217874441Y-81622251D01*
X217785081Y-81446871D01*
X217669385Y-81287630D01*
X217530203Y-81148448D01*
X217370962Y-81032752D01*
X217370961Y-81032751D01*
X217370959Y-81032750D01*
X217195582Y-80943392D01*
X217008378Y-80882565D01*
X216813977Y-80851776D01*
X216813974Y-80851776D01*
X216617140Y-80851776D01*
X216617137Y-80851776D01*
X216422735Y-80882565D01*
X216235531Y-80943392D01*
X216060154Y-81032750D01*
X215900912Y-81148447D01*
X215761728Y-81287631D01*
X215646031Y-81446873D01*
X215556673Y-81622250D01*
X215495846Y-81809454D01*
X215465057Y-82003855D01*
X215465057Y-82200696D01*
X215495846Y-82395097D01*
X215556673Y-82582301D01*
X215642886Y-82751506D01*
X215646033Y-82757681D01*
X215761729Y-82916922D01*
X215900911Y-83056104D01*
X216060152Y-83171800D01*
X216235532Y-83261160D01*
X216422731Y-83321985D01*
X216422732Y-83321985D01*
X216422735Y-83321986D01*
X216617137Y-83352776D01*
X216617140Y-83352776D01*
X216813977Y-83352776D01*
X216959780Y-83329682D01*
X217008383Y-83321985D01*
X217195582Y-83261160D01*
X217195590Y-83261155D01*
X217196082Y-83260996D01*
X217257268Y-83260995D01*
X217296680Y-83285146D01*
X218179309Y-84167775D01*
X218207086Y-84222292D01*
X218208305Y-84237779D01*
X218208305Y-94876473D01*
X218189398Y-94934664D01*
X218154250Y-94964683D01*
X218153782Y-94964921D01*
X218153780Y-94964922D01*
X218096845Y-94993931D01*
X217978402Y-95054280D01*
X217819160Y-95169977D01*
X217679976Y-95309161D01*
X217564279Y-95468403D01*
X217474920Y-95643781D01*
X217463186Y-95679898D01*
X217427222Y-95729398D01*
X217369032Y-95748306D01*
X203925630Y-95748306D01*
X203826758Y-95748306D01*
X203741585Y-95771127D01*
X203715967Y-95774500D01*
X203585930Y-95774500D01*
X203523093Y-95786999D01*
X203460256Y-95799499D01*
X203460254Y-95799499D01*
X203460248Y-95799501D01*
X203412385Y-95819327D01*
X203351388Y-95824127D01*
X203299219Y-95792158D01*
X203275805Y-95735630D01*
X203275500Y-95727863D01*
X203275500Y-94750565D01*
X203270140Y-94730564D01*
X203270139Y-94730560D01*
X203249910Y-94655062D01*
X203249910Y-94655061D01*
X203200475Y-94569438D01*
X203130562Y-94499524D01*
X203130562Y-94499525D01*
X201416968Y-92785931D01*
X212399500Y-92785931D01*
X212399500Y-92914069D01*
X212420816Y-93021231D01*
X212424499Y-93039742D01*
X212424500Y-93039747D01*
X212473534Y-93158125D01*
X212473538Y-93158133D01*
X212511314Y-93214668D01*
X212544724Y-93264669D01*
X212635331Y-93355276D01*
X212667037Y-93376461D01*
X212741866Y-93426461D01*
X212741870Y-93426463D01*
X212741873Y-93426465D01*
X212860256Y-93475501D01*
X212985931Y-93500500D01*
X212985932Y-93500500D01*
X213114068Y-93500500D01*
X213114069Y-93500500D01*
X213239744Y-93475501D01*
X213358127Y-93426465D01*
X213464669Y-93355276D01*
X213555276Y-93264669D01*
X213585458Y-93219497D01*
X213633508Y-93181619D01*
X213667773Y-93175500D01*
X214415756Y-93175500D01*
X214473947Y-93194407D01*
X214492292Y-93211705D01*
X214494723Y-93214668D01*
X214494724Y-93214669D01*
X214585331Y-93305276D01*
X214631208Y-93335930D01*
X214691866Y-93376461D01*
X214691870Y-93376463D01*
X214691873Y-93376465D01*
X214810256Y-93425501D01*
X214935931Y-93450500D01*
X214935932Y-93450500D01*
X215064068Y-93450500D01*
X215064069Y-93450500D01*
X215189744Y-93425501D01*
X215308127Y-93376465D01*
X215414669Y-93305276D01*
X215505276Y-93214669D01*
X215576465Y-93108127D01*
X215625501Y-92989744D01*
X215650500Y-92864069D01*
X215650500Y-92735931D01*
X215625501Y-92610256D01*
X215576465Y-92491873D01*
X215576463Y-92491870D01*
X215576461Y-92491866D01*
X215538682Y-92435327D01*
X215505276Y-92385331D01*
X215414669Y-92294724D01*
X215372226Y-92266365D01*
X215308133Y-92223538D01*
X215308125Y-92223534D01*
X215189747Y-92174500D01*
X215189745Y-92174499D01*
X215189744Y-92174499D01*
X215064069Y-92149500D01*
X214935931Y-92149500D01*
X214935930Y-92149500D01*
X214873093Y-92161999D01*
X214810256Y-92174499D01*
X214810255Y-92174499D01*
X214810252Y-92174500D01*
X214691874Y-92223534D01*
X214691866Y-92223538D01*
X214585331Y-92294724D01*
X214585327Y-92294727D01*
X214494723Y-92385331D01*
X214492292Y-92388295D01*
X214440765Y-92421289D01*
X214415756Y-92424500D01*
X213585453Y-92424500D01*
X213527262Y-92405593D01*
X213515449Y-92395504D01*
X213464672Y-92344727D01*
X213464669Y-92344724D01*
X213422226Y-92316365D01*
X213358133Y-92273538D01*
X213358125Y-92273534D01*
X213239747Y-92224500D01*
X213239745Y-92224499D01*
X213239744Y-92224499D01*
X213114069Y-92199500D01*
X212985931Y-92199500D01*
X212985930Y-92199500D01*
X212939731Y-92208690D01*
X212860256Y-92224499D01*
X212860255Y-92224499D01*
X212860252Y-92224500D01*
X212741874Y-92273534D01*
X212741866Y-92273538D01*
X212635331Y-92344724D01*
X212635327Y-92344727D01*
X212544727Y-92435327D01*
X212544725Y-92435330D01*
X212473538Y-92541866D01*
X212473534Y-92541874D01*
X212424500Y-92660252D01*
X212424499Y-92660257D01*
X212402753Y-92769580D01*
X212399500Y-92785931D01*
X201416968Y-92785931D01*
X201105563Y-92474526D01*
X201105563Y-92474525D01*
X201019941Y-92425091D01*
X201019934Y-92425088D01*
X200972185Y-92412294D01*
X200972184Y-92412294D01*
X200924438Y-92399500D01*
X200924436Y-92399500D01*
X200924435Y-92399500D01*
X199784244Y-92399500D01*
X199726053Y-92380593D01*
X199707708Y-92363295D01*
X199705276Y-92360331D01*
X199614672Y-92269727D01*
X199614669Y-92269724D01*
X199572226Y-92241365D01*
X199508133Y-92198538D01*
X199508125Y-92198534D01*
X199389747Y-92149500D01*
X199389745Y-92149499D01*
X199389744Y-92149499D01*
X199264069Y-92124500D01*
X199135931Y-92124500D01*
X199135930Y-92124500D01*
X199073093Y-92136999D01*
X199010256Y-92149499D01*
X199010255Y-92149499D01*
X199010252Y-92149500D01*
X198891874Y-92198534D01*
X198891866Y-92198538D01*
X198785331Y-92269724D01*
X198785322Y-92269731D01*
X198694723Y-92360331D01*
X198681247Y-92380501D01*
X198633197Y-92418381D01*
X198598931Y-92424500D01*
X198549436Y-92424500D01*
X198450564Y-92424500D01*
X198430353Y-92429915D01*
X198410142Y-92435331D01*
X198410141Y-92435330D01*
X198355062Y-92450089D01*
X198355058Y-92450091D01*
X198269436Y-92499525D01*
X198269437Y-92499526D01*
X198123459Y-92645504D01*
X198068942Y-92673281D01*
X198053455Y-92674500D01*
X185424500Y-92674500D01*
X185366309Y-92655593D01*
X185330345Y-92606093D01*
X185327402Y-92594814D01*
X185325501Y-92585256D01*
X185307528Y-92541866D01*
X185276467Y-92466877D01*
X185276461Y-92466866D01*
X185239997Y-92412295D01*
X185205276Y-92360331D01*
X185114669Y-92269724D01*
X185072226Y-92241365D01*
X185008133Y-92198538D01*
X185008125Y-92198534D01*
X184889747Y-92149500D01*
X184889745Y-92149499D01*
X184889744Y-92149499D01*
X184764069Y-92124500D01*
X184635931Y-92124500D01*
X184635930Y-92124500D01*
X184573093Y-92136999D01*
X184510256Y-92149499D01*
X184510255Y-92149499D01*
X184510252Y-92149500D01*
X184391874Y-92198534D01*
X184391866Y-92198538D01*
X184285331Y-92269724D01*
X184285327Y-92269727D01*
X184194727Y-92360327D01*
X184194724Y-92360331D01*
X184123538Y-92466866D01*
X184123534Y-92466874D01*
X184074500Y-92585252D01*
X184074500Y-92585254D01*
X184074499Y-92585256D01*
X184049500Y-92710931D01*
X184049500Y-92839069D01*
X184073609Y-92960272D01*
X184074499Y-92964742D01*
X184074501Y-92964751D01*
X184083972Y-92987615D01*
X184088773Y-93048611D01*
X184056803Y-93100780D01*
X184000275Y-93124195D01*
X183992508Y-93124500D01*
X183760149Y-93124500D01*
X183752551Y-93122031D01*
X183744662Y-93123281D01*
X183724006Y-93112756D01*
X183701958Y-93105593D01*
X183690145Y-93095504D01*
X183554496Y-92959855D01*
X183526719Y-92905338D01*
X183525500Y-92889851D01*
X183525500Y-84568102D01*
X195990465Y-84568102D01*
X195990465Y-84765189D01*
X196028914Y-84958480D01*
X196028914Y-84958482D01*
X196104332Y-85140559D01*
X196104333Y-85140560D01*
X196213826Y-85304428D01*
X196353183Y-85443785D01*
X196517051Y-85553278D01*
X196699130Y-85628697D01*
X196892424Y-85667146D01*
X196892425Y-85667146D01*
X197089505Y-85667146D01*
X197089506Y-85667146D01*
X197282800Y-85628697D01*
X197464879Y-85553278D01*
X197628747Y-85443785D01*
X197768104Y-85304428D01*
X197847345Y-85185836D01*
X212283076Y-85185836D01*
X212283076Y-85382677D01*
X212313865Y-85577078D01*
X212374692Y-85764282D01*
X212433717Y-85880127D01*
X212464052Y-85939662D01*
X212579748Y-86098903D01*
X212718930Y-86238085D01*
X212878171Y-86353781D01*
X213053551Y-86443141D01*
X213240750Y-86503966D01*
X213240751Y-86503966D01*
X213240754Y-86503967D01*
X213435156Y-86534757D01*
X213435159Y-86534757D01*
X213631996Y-86534757D01*
X213826397Y-86503967D01*
X213826398Y-86503966D01*
X213826402Y-86503966D01*
X214013601Y-86443141D01*
X214188981Y-86353781D01*
X214348222Y-86238085D01*
X214487404Y-86098903D01*
X214603100Y-85939662D01*
X214692460Y-85764282D01*
X214753285Y-85577083D01*
X214753286Y-85577078D01*
X214784076Y-85382677D01*
X214784076Y-85185836D01*
X214753286Y-84991435D01*
X214742579Y-84958482D01*
X214692460Y-84804232D01*
X214603100Y-84628852D01*
X214487404Y-84469611D01*
X214348222Y-84330429D01*
X214188981Y-84214733D01*
X214188980Y-84214732D01*
X214188978Y-84214731D01*
X214013601Y-84125373D01*
X213826397Y-84064546D01*
X213631996Y-84033757D01*
X213631993Y-84033757D01*
X213435159Y-84033757D01*
X213435156Y-84033757D01*
X213240754Y-84064546D01*
X213053550Y-84125373D01*
X212878173Y-84214731D01*
X212718931Y-84330428D01*
X212579747Y-84469612D01*
X212464050Y-84628854D01*
X212374692Y-84804231D01*
X212313865Y-84991435D01*
X212283076Y-85185836D01*
X197847345Y-85185836D01*
X197877597Y-85140560D01*
X197953016Y-84958481D01*
X197991465Y-84765187D01*
X197991465Y-84568105D01*
X197953016Y-84374811D01*
X197877597Y-84192732D01*
X197768104Y-84028864D01*
X197628747Y-83889507D01*
X197464879Y-83780014D01*
X197464880Y-83780014D01*
X197464878Y-83780013D01*
X197282800Y-83704595D01*
X197089508Y-83666146D01*
X197089506Y-83666146D01*
X196892424Y-83666146D01*
X196892421Y-83666146D01*
X196699130Y-83704595D01*
X196699128Y-83704595D01*
X196517051Y-83780013D01*
X196353183Y-83889507D01*
X196353179Y-83889510D01*
X196213829Y-84028860D01*
X196213826Y-84028864D01*
X196104332Y-84192732D01*
X196028914Y-84374809D01*
X196028914Y-84374811D01*
X195990465Y-84568102D01*
X183525500Y-84568102D01*
X183525500Y-81117421D01*
X199441146Y-81117421D01*
X199441146Y-81314508D01*
X199466778Y-81443368D01*
X199478582Y-81502709D01*
X199479595Y-81507799D01*
X199479595Y-81507801D01*
X199555013Y-81689878D01*
X199555014Y-81689879D01*
X199664507Y-81853747D01*
X199803864Y-81993104D01*
X199967732Y-82102597D01*
X200149811Y-82178016D01*
X200343105Y-82216465D01*
X200343106Y-82216465D01*
X200540186Y-82216465D01*
X200540187Y-82216465D01*
X200733481Y-82178016D01*
X200915560Y-82102597D01*
X201079428Y-81993104D01*
X201218785Y-81853747D01*
X201328278Y-81689879D01*
X201403697Y-81507800D01*
X201442146Y-81314506D01*
X201442146Y-81117424D01*
X201403697Y-80924130D01*
X201328278Y-80742051D01*
X201226442Y-80589642D01*
X207686882Y-80589642D01*
X207686882Y-80786483D01*
X207717671Y-80980884D01*
X207778498Y-81168088D01*
X207839407Y-81287631D01*
X207867858Y-81343468D01*
X207983554Y-81502709D01*
X208122736Y-81641891D01*
X208281977Y-81757587D01*
X208457357Y-81846947D01*
X208644556Y-81907772D01*
X208644557Y-81907772D01*
X208644560Y-81907773D01*
X208838962Y-81938563D01*
X208838965Y-81938563D01*
X209035802Y-81938563D01*
X209230203Y-81907773D01*
X209230204Y-81907772D01*
X209230208Y-81907772D01*
X209417407Y-81846947D01*
X209592787Y-81757587D01*
X209752028Y-81641891D01*
X209891210Y-81502709D01*
X210006906Y-81343468D01*
X210096266Y-81168088D01*
X210157091Y-80980889D01*
X210166081Y-80924128D01*
X210187882Y-80786483D01*
X210187882Y-80589642D01*
X210157092Y-80395241D01*
X210157091Y-80395237D01*
X210096266Y-80208038D01*
X210006906Y-80032658D01*
X209891210Y-79873417D01*
X209752028Y-79734235D01*
X209592787Y-79618539D01*
X209592786Y-79618538D01*
X209592784Y-79618537D01*
X209417407Y-79529179D01*
X209230203Y-79468352D01*
X209035802Y-79437563D01*
X209035799Y-79437563D01*
X208838965Y-79437563D01*
X208838962Y-79437563D01*
X208644560Y-79468352D01*
X208457356Y-79529179D01*
X208281979Y-79618537D01*
X208122737Y-79734234D01*
X207983553Y-79873418D01*
X207867856Y-80032660D01*
X207778498Y-80208037D01*
X207717671Y-80395241D01*
X207686882Y-80589642D01*
X201226442Y-80589642D01*
X201218785Y-80578183D01*
X201079428Y-80438826D01*
X200915560Y-80329333D01*
X200915561Y-80329333D01*
X200915559Y-80329332D01*
X200733481Y-80253914D01*
X200540189Y-80215465D01*
X200540187Y-80215465D01*
X200343105Y-80215465D01*
X200343102Y-80215465D01*
X200149811Y-80253914D01*
X200149809Y-80253914D01*
X199967732Y-80329332D01*
X199803864Y-80438826D01*
X199803860Y-80438829D01*
X199664510Y-80578179D01*
X199664507Y-80578183D01*
X199555013Y-80742051D01*
X199479595Y-80924128D01*
X199479595Y-80924130D01*
X199441146Y-81117421D01*
X183525500Y-81117421D01*
X183525500Y-78900566D01*
X183525499Y-78900561D01*
X183525220Y-78899520D01*
X183525213Y-78899496D01*
X183499910Y-78805063D01*
X183499910Y-78805061D01*
X183450475Y-78719438D01*
X183380562Y-78649524D01*
X183380562Y-78649525D01*
X183095495Y-78364458D01*
X183067718Y-78309941D01*
X183077289Y-78249509D01*
X183095495Y-78224450D01*
X183100148Y-78219797D01*
X183105276Y-78214669D01*
X183176465Y-78108127D01*
X183225501Y-77989744D01*
X183250500Y-77864069D01*
X183250500Y-77735931D01*
X183225501Y-77610256D01*
X183176465Y-77491873D01*
X183176463Y-77491870D01*
X183176461Y-77491866D01*
X183135441Y-77430476D01*
X183105276Y-77385331D01*
X183014669Y-77294724D01*
X182972226Y-77266365D01*
X182908133Y-77223538D01*
X182908125Y-77223534D01*
X182789747Y-77174500D01*
X182789745Y-77174499D01*
X182789744Y-77174499D01*
X182664069Y-77149500D01*
X182535931Y-77149500D01*
X182535930Y-77149500D01*
X182473093Y-77161999D01*
X182410256Y-77174499D01*
X182410255Y-77174499D01*
X182410252Y-77174500D01*
X182291874Y-77223534D01*
X182291862Y-77223540D01*
X182288101Y-77226054D01*
X182229213Y-77242662D01*
X182171810Y-77221484D01*
X182137818Y-77170609D01*
X182136003Y-77163053D01*
X182133307Y-77149500D01*
X182125501Y-77110256D01*
X182076465Y-76991873D01*
X182076463Y-76991870D01*
X182076461Y-76991866D01*
X182047717Y-76948848D01*
X182005276Y-76885331D01*
X181914669Y-76794724D01*
X181869765Y-76764720D01*
X181808133Y-76723538D01*
X181808125Y-76723534D01*
X181689747Y-76674500D01*
X181689745Y-76674499D01*
X181689744Y-76674499D01*
X181564069Y-76649500D01*
X181435931Y-76649500D01*
X181435930Y-76649500D01*
X181373093Y-76661999D01*
X181310256Y-76674499D01*
X181310255Y-76674499D01*
X181310252Y-76674500D01*
X181191874Y-76723534D01*
X181191866Y-76723538D01*
X181085331Y-76794724D01*
X181085327Y-76794727D01*
X180994727Y-76885327D01*
X180994724Y-76885331D01*
X180923538Y-76991866D01*
X180923534Y-76991874D01*
X180874500Y-77110252D01*
X180874499Y-77110257D01*
X180849500Y-77235930D01*
X180849500Y-77364069D01*
X180874499Y-77489742D01*
X180874500Y-77489747D01*
X180923534Y-77608125D01*
X180923538Y-77608133D01*
X180966365Y-77672226D01*
X180994724Y-77714669D01*
X180994727Y-77714672D01*
X180994731Y-77714677D01*
X181050500Y-77770445D01*
X181085331Y-77805276D01*
X181085339Y-77805281D01*
X181088301Y-77807712D01*
X181121291Y-77859242D01*
X181124500Y-77884244D01*
X181124500Y-78049435D01*
X181131781Y-78076612D01*
X181150089Y-78144937D01*
X181150091Y-78144941D01*
X181193309Y-78219797D01*
X181193310Y-78219797D01*
X181193311Y-78219799D01*
X181199526Y-78230563D01*
X181750859Y-78781896D01*
X181778635Y-78836411D01*
X181769064Y-78896843D01*
X181725799Y-78940108D01*
X181668998Y-78949103D01*
X181668913Y-78949977D01*
X181665565Y-78949647D01*
X181665367Y-78949679D01*
X181664727Y-78949564D01*
X181664069Y-78949500D01*
X181535931Y-78949500D01*
X181535930Y-78949500D01*
X181473093Y-78961999D01*
X181410256Y-78974499D01*
X181410255Y-78974499D01*
X181410252Y-78974500D01*
X181291874Y-79023534D01*
X181291866Y-79023538D01*
X181185331Y-79094724D01*
X181185327Y-79094727D01*
X181094723Y-79185331D01*
X181092292Y-79188295D01*
X181040765Y-79221289D01*
X181015756Y-79224500D01*
X177449436Y-79224500D01*
X177350564Y-79224500D01*
X177302813Y-79237295D01*
X177302812Y-79237294D01*
X177255062Y-79250089D01*
X177255058Y-79250091D01*
X177169436Y-79299525D01*
X177169437Y-79299526D01*
X169269438Y-87199525D01*
X169269437Y-87199524D01*
X169199524Y-87269438D01*
X169150091Y-87355057D01*
X169150090Y-87355062D01*
X169124500Y-87450565D01*
X169124500Y-92049435D01*
X169144614Y-92124500D01*
X169150091Y-92144942D01*
X169199525Y-92230563D01*
X169199526Y-92230563D01*
X169824459Y-92855496D01*
X169852236Y-92910013D01*
X169842665Y-92970445D01*
X169799400Y-93013710D01*
X169754455Y-93024500D01*
X159884244Y-93024500D01*
X159826053Y-93005593D01*
X159807708Y-92988295D01*
X159805276Y-92985331D01*
X159714672Y-92894727D01*
X159714669Y-92894724D01*
X159672226Y-92866365D01*
X159608133Y-92823538D01*
X159608125Y-92823534D01*
X159489747Y-92774500D01*
X159489745Y-92774499D01*
X159489744Y-92774499D01*
X159364069Y-92749500D01*
X159235931Y-92749500D01*
X159235930Y-92749500D01*
X159198684Y-92756909D01*
X159110256Y-92774499D01*
X159110255Y-92774499D01*
X159110252Y-92774500D01*
X158991874Y-92823534D01*
X158991866Y-92823538D01*
X158885331Y-92894724D01*
X158885327Y-92894727D01*
X158794727Y-92985327D01*
X158794724Y-92985331D01*
X158723538Y-93091866D01*
X158723532Y-93091876D01*
X158714060Y-93114745D01*
X158674322Y-93161270D01*
X158614827Y-93175552D01*
X158558300Y-93152135D01*
X158552593Y-93146861D01*
X157804496Y-92398764D01*
X157776719Y-92344247D01*
X157775500Y-92328760D01*
X157775500Y-90550566D01*
X157767327Y-90520063D01*
X157749910Y-90455062D01*
X157749908Y-90455059D01*
X157749908Y-90455057D01*
X157700475Y-90369438D01*
X157630562Y-90299524D01*
X157630562Y-90299525D01*
X156978641Y-89647604D01*
X156950864Y-89593087D01*
X156950123Y-89567881D01*
X156950498Y-89564078D01*
X156950500Y-89564069D01*
X156950500Y-89435931D01*
X156925501Y-89310256D01*
X156876465Y-89191873D01*
X156876463Y-89191870D01*
X156876461Y-89191866D01*
X156824499Y-89114101D01*
X156805276Y-89085331D01*
X156714669Y-88994724D01*
X156663659Y-88960640D01*
X156608133Y-88923538D01*
X156608125Y-88923534D01*
X156489747Y-88874500D01*
X156489745Y-88874499D01*
X156489744Y-88874499D01*
X156364069Y-88849500D01*
X156235931Y-88849500D01*
X156235930Y-88849500D01*
X156173093Y-88861999D01*
X156110256Y-88874499D01*
X156110255Y-88874499D01*
X156110252Y-88874500D01*
X155991874Y-88923534D01*
X155991868Y-88923537D01*
X155929501Y-88965210D01*
X155870613Y-88981818D01*
X155813210Y-88960640D01*
X155779217Y-88909767D01*
X155775500Y-88882894D01*
X155775500Y-88650566D01*
X155773876Y-88644504D01*
X155749910Y-88555062D01*
X155749908Y-88555059D01*
X155749908Y-88555057D01*
X155700475Y-88469438D01*
X155630562Y-88399524D01*
X155630562Y-88399525D01*
X155030563Y-87799526D01*
X155030563Y-87799525D01*
X154944941Y-87750091D01*
X154944935Y-87750089D01*
X154914245Y-87741865D01*
X154862931Y-87708540D01*
X154841006Y-87651418D01*
X154856843Y-87592318D01*
X154859777Y-87588048D01*
X154940805Y-87476522D01*
X155019411Y-87322248D01*
X155072915Y-87157579D01*
X155100000Y-86986575D01*
X155100000Y-86813424D01*
X155072915Y-86642420D01*
X155019411Y-86477751D01*
X154940805Y-86323477D01*
X154876778Y-86235352D01*
X154443670Y-86668460D01*
X154400099Y-86592993D01*
X154307007Y-86499901D01*
X154231536Y-86456328D01*
X154664646Y-86023219D01*
X154576528Y-85959197D01*
X154576524Y-85959195D01*
X154422248Y-85880588D01*
X154257579Y-85827084D01*
X154086575Y-85800000D01*
X153913425Y-85800000D01*
X153742420Y-85827084D01*
X153577751Y-85880588D01*
X153423476Y-85959195D01*
X153335352Y-86023219D01*
X153768461Y-86456328D01*
X153692993Y-86499901D01*
X153599901Y-86592993D01*
X153556329Y-86668461D01*
X153123219Y-86235352D01*
X153059195Y-86323476D01*
X152980588Y-86477751D01*
X152927084Y-86642420D01*
X152900000Y-86813424D01*
X152900000Y-86986575D01*
X152927084Y-87157579D01*
X152980588Y-87322248D01*
X153059195Y-87476524D01*
X153059197Y-87476528D01*
X153125154Y-87567310D01*
X153129998Y-87582220D01*
X153139216Y-87594907D01*
X153139216Y-87610589D01*
X153144061Y-87625501D01*
X153139216Y-87640411D01*
X153139216Y-87656093D01*
X153129997Y-87668780D01*
X153125153Y-87683691D01*
X153112469Y-87692906D01*
X153103252Y-87705593D01*
X153088338Y-87710438D01*
X153075653Y-87719655D01*
X153045061Y-87724500D01*
X152856545Y-87724500D01*
X152798354Y-87705593D01*
X152786541Y-87695504D01*
X152506489Y-87415452D01*
X152478712Y-87360935D01*
X152482339Y-87314854D01*
X152487134Y-87300099D01*
X152517381Y-87207007D01*
X152533402Y-87157702D01*
X152560500Y-86986614D01*
X152560500Y-86813385D01*
X152533402Y-86642297D01*
X152533401Y-86642293D01*
X152499680Y-86538513D01*
X152499679Y-86477328D01*
X152523828Y-86437918D01*
X157378187Y-81583560D01*
X169667519Y-81583560D01*
X169667519Y-81780401D01*
X169698308Y-81974802D01*
X169759135Y-82162006D01*
X169786882Y-82216464D01*
X169848495Y-82337386D01*
X169964191Y-82496627D01*
X170103373Y-82635809D01*
X170262614Y-82751505D01*
X170437994Y-82840865D01*
X170625193Y-82901690D01*
X170625194Y-82901690D01*
X170625197Y-82901691D01*
X170819599Y-82932481D01*
X170819602Y-82932481D01*
X171016439Y-82932481D01*
X171210840Y-82901691D01*
X171210841Y-82901690D01*
X171210845Y-82901690D01*
X171398044Y-82840865D01*
X171573424Y-82751505D01*
X171732665Y-82635809D01*
X171871847Y-82496627D01*
X171987543Y-82337386D01*
X172076903Y-82162006D01*
X172137728Y-81974807D01*
X172137729Y-81974802D01*
X172168519Y-81780401D01*
X172168519Y-81583560D01*
X172137729Y-81389159D01*
X172122882Y-81343465D01*
X172076903Y-81201956D01*
X171987543Y-81026576D01*
X171871847Y-80867335D01*
X171732665Y-80728153D01*
X171573424Y-80612457D01*
X171573423Y-80612456D01*
X171573421Y-80612455D01*
X171398044Y-80523097D01*
X171210840Y-80462270D01*
X171016439Y-80431481D01*
X171016436Y-80431481D01*
X170819602Y-80431481D01*
X170819599Y-80431481D01*
X170625197Y-80462270D01*
X170437993Y-80523097D01*
X170262616Y-80612455D01*
X170103374Y-80728152D01*
X169964190Y-80867336D01*
X169848493Y-81026578D01*
X169759135Y-81201955D01*
X169698308Y-81389159D01*
X169667519Y-81583560D01*
X157378187Y-81583560D01*
X160560169Y-78401579D01*
X172849500Y-78401579D01*
X172849500Y-78598420D01*
X172880289Y-78792821D01*
X172941116Y-78980025D01*
X172999557Y-79094724D01*
X173030476Y-79155405D01*
X173146172Y-79314646D01*
X173285354Y-79453828D01*
X173444595Y-79569524D01*
X173619975Y-79658884D01*
X173807174Y-79719709D01*
X173807175Y-79719709D01*
X173807178Y-79719710D01*
X174001580Y-79750500D01*
X174001583Y-79750500D01*
X174198420Y-79750500D01*
X174392821Y-79719710D01*
X174392822Y-79719709D01*
X174392826Y-79719709D01*
X174580025Y-79658884D01*
X174755405Y-79569524D01*
X174914646Y-79453828D01*
X175053828Y-79314646D01*
X175169524Y-79155405D01*
X175258884Y-78980025D01*
X175319709Y-78792826D01*
X175319710Y-78792821D01*
X175350500Y-78598420D01*
X175350500Y-78401579D01*
X175319710Y-78207178D01*
X175302858Y-78155312D01*
X175258884Y-78019975D01*
X175169524Y-77844595D01*
X175053828Y-77685354D01*
X174914646Y-77546172D01*
X174755405Y-77430476D01*
X174755404Y-77430475D01*
X174755402Y-77430474D01*
X174580025Y-77341116D01*
X174392821Y-77280289D01*
X174198420Y-77249500D01*
X174198417Y-77249500D01*
X174001583Y-77249500D01*
X174001580Y-77249500D01*
X173807178Y-77280289D01*
X173619974Y-77341116D01*
X173444597Y-77430474D01*
X173285355Y-77546171D01*
X173146171Y-77685355D01*
X173030474Y-77844597D01*
X172941116Y-78019974D01*
X172880289Y-78207178D01*
X172849500Y-78401579D01*
X160560169Y-78401579D01*
X161974382Y-76987366D01*
X165071325Y-76987366D01*
X165071325Y-77184207D01*
X165102114Y-77378608D01*
X165162941Y-77565812D01*
X165249620Y-77735932D01*
X165252301Y-77741192D01*
X165367997Y-77900433D01*
X165507179Y-78039615D01*
X165666420Y-78155311D01*
X165841800Y-78244671D01*
X166028999Y-78305496D01*
X166029000Y-78305496D01*
X166029003Y-78305497D01*
X166223405Y-78336287D01*
X166223408Y-78336287D01*
X166420245Y-78336287D01*
X166586586Y-78309941D01*
X166614651Y-78305496D01*
X166801850Y-78244671D01*
X166977230Y-78155311D01*
X167136471Y-78039615D01*
X167275653Y-77900433D01*
X167391349Y-77741192D01*
X167480709Y-77565812D01*
X167541534Y-77378613D01*
X167554821Y-77294724D01*
X167572325Y-77184207D01*
X167572325Y-76987366D01*
X167541535Y-76792965D01*
X167518976Y-76723535D01*
X167480709Y-76605762D01*
X167391349Y-76430382D01*
X167275653Y-76271141D01*
X167136471Y-76131959D01*
X166977230Y-76016263D01*
X166977229Y-76016262D01*
X166977227Y-76016261D01*
X166801850Y-75926903D01*
X166614646Y-75866076D01*
X166420245Y-75835287D01*
X166420242Y-75835287D01*
X166223408Y-75835287D01*
X166223405Y-75835287D01*
X166029003Y-75866076D01*
X165841799Y-75926903D01*
X165666422Y-76016261D01*
X165507180Y-76131958D01*
X165367996Y-76271142D01*
X165252299Y-76430384D01*
X165162941Y-76605761D01*
X165102114Y-76792965D01*
X165071325Y-76987366D01*
X161974382Y-76987366D01*
X164603446Y-74358302D01*
X164657963Y-74330525D01*
X164673450Y-74329306D01*
X168256472Y-74329306D01*
X168314663Y-74348213D01*
X168344682Y-74383361D01*
X168344920Y-74383828D01*
X168344921Y-74383831D01*
X168434281Y-74559211D01*
X168549977Y-74718452D01*
X168689159Y-74857634D01*
X168848400Y-74973330D01*
X169023780Y-75062690D01*
X169210979Y-75123515D01*
X169210980Y-75123515D01*
X169210983Y-75123516D01*
X169405385Y-75154306D01*
X169405388Y-75154306D01*
X169602225Y-75154306D01*
X169796632Y-75123515D01*
X169945919Y-75075008D01*
X169983830Y-75062690D01*
X169983831Y-75062689D01*
X169984331Y-75062527D01*
X170045516Y-75062526D01*
X170084928Y-75086677D01*
X170738736Y-75740485D01*
X170738738Y-75740486D01*
X170835758Y-75796501D01*
X170835756Y-75796501D01*
X170835760Y-75796502D01*
X170835762Y-75796503D01*
X170943981Y-75825500D01*
X170943983Y-75825500D01*
X190634823Y-75825500D01*
X190634825Y-75825500D01*
X190743044Y-75796503D01*
X190743046Y-75796501D01*
X190743048Y-75796501D01*
X190771871Y-75779859D01*
X190840070Y-75740485D01*
X191702388Y-74878167D01*
X198944108Y-74878167D01*
X198944108Y-75075008D01*
X198974897Y-75269409D01*
X199035724Y-75456613D01*
X199112509Y-75607314D01*
X199125084Y-75631993D01*
X199240780Y-75791234D01*
X199379962Y-75930416D01*
X199539203Y-76046112D01*
X199714583Y-76135472D01*
X199901782Y-76196297D01*
X199901783Y-76196297D01*
X199901786Y-76196298D01*
X200096188Y-76227088D01*
X200096191Y-76227088D01*
X200293028Y-76227088D01*
X200487429Y-76196298D01*
X200487430Y-76196297D01*
X200487434Y-76196297D01*
X200674633Y-76135472D01*
X200850013Y-76046112D01*
X201009254Y-75930416D01*
X201148436Y-75791234D01*
X201264132Y-75631993D01*
X201353492Y-75456613D01*
X201365227Y-75420495D01*
X201401191Y-75370996D01*
X201459381Y-75352088D01*
X204580043Y-75352088D01*
X204638234Y-75370995D01*
X204650046Y-75381083D01*
X207075519Y-77806557D01*
X207161145Y-77855993D01*
X207256646Y-77881582D01*
X207256647Y-77881582D01*
X210854588Y-77881582D01*
X210912779Y-77900489D01*
X210948743Y-77949989D01*
X210948743Y-77949990D01*
X210960477Y-77986106D01*
X211049836Y-78161484D01*
X211049838Y-78161487D01*
X211165534Y-78320728D01*
X211304716Y-78459910D01*
X211463957Y-78575606D01*
X211639337Y-78664966D01*
X211826536Y-78725791D01*
X211826537Y-78725791D01*
X211826540Y-78725792D01*
X212020942Y-78756582D01*
X212020945Y-78756582D01*
X212217782Y-78756582D01*
X212412183Y-78725792D01*
X212412184Y-78725791D01*
X212412188Y-78725791D01*
X212599387Y-78664966D01*
X212774767Y-78575606D01*
X212934008Y-78459910D01*
X213073190Y-78320728D01*
X213188886Y-78161487D01*
X213278246Y-77986107D01*
X213339071Y-77798908D01*
X213348213Y-77741189D01*
X213369862Y-77604502D01*
X213369862Y-77407661D01*
X213339072Y-77213260D01*
X213311187Y-77127439D01*
X213278246Y-77026057D01*
X213188886Y-76850677D01*
X213073190Y-76691436D01*
X212934008Y-76552254D01*
X212774767Y-76436558D01*
X212774766Y-76436557D01*
X212774764Y-76436556D01*
X212599387Y-76347198D01*
X212412183Y-76286371D01*
X212217782Y-76255582D01*
X212217779Y-76255582D01*
X212020945Y-76255582D01*
X212020942Y-76255582D01*
X211826540Y-76286371D01*
X211639336Y-76347198D01*
X211463959Y-76436556D01*
X211304717Y-76552253D01*
X211165533Y-76691437D01*
X211049836Y-76850679D01*
X210960477Y-77026057D01*
X210948743Y-77062174D01*
X210912779Y-77111674D01*
X210854589Y-77130582D01*
X207502628Y-77130582D01*
X207444437Y-77111675D01*
X207432624Y-77101586D01*
X205007151Y-74676114D01*
X205007151Y-74676113D01*
X204921529Y-74626679D01*
X204921525Y-74626677D01*
X204871226Y-74613199D01*
X204871226Y-74613200D01*
X204826024Y-74601088D01*
X204826023Y-74601088D01*
X201459382Y-74601088D01*
X201401191Y-74582181D01*
X201365227Y-74532681D01*
X201365227Y-74532680D01*
X201353492Y-74496563D01*
X201264133Y-74321185D01*
X201264132Y-74321183D01*
X201148436Y-74161942D01*
X201009254Y-74022760D01*
X200850013Y-73907064D01*
X200850012Y-73907063D01*
X200850010Y-73907062D01*
X200674633Y-73817704D01*
X200487429Y-73756877D01*
X200293028Y-73726088D01*
X200293025Y-73726088D01*
X200096191Y-73726088D01*
X200096188Y-73726088D01*
X199901786Y-73756877D01*
X199714582Y-73817704D01*
X199539205Y-73907062D01*
X199379963Y-74022759D01*
X199240779Y-74161943D01*
X199125082Y-74321185D01*
X199035724Y-74496562D01*
X198974897Y-74683766D01*
X198944108Y-74878167D01*
X191702388Y-74878167D01*
X194884367Y-71696186D01*
X202126088Y-71696186D01*
X202126088Y-71893027D01*
X202156877Y-72087428D01*
X202217704Y-72274632D01*
X202307064Y-72450012D01*
X202422760Y-72609253D01*
X202561942Y-72748435D01*
X202721183Y-72864131D01*
X202896563Y-72953491D01*
X203083762Y-73014316D01*
X203083763Y-73014316D01*
X203083766Y-73014317D01*
X203278168Y-73045107D01*
X203278171Y-73045107D01*
X203475008Y-73045107D01*
X203669409Y-73014317D01*
X203669410Y-73014316D01*
X203669414Y-73014316D01*
X203856613Y-72953491D01*
X204031993Y-72864131D01*
X204191234Y-72748435D01*
X204330416Y-72609253D01*
X204446112Y-72450012D01*
X204535472Y-72274632D01*
X204596297Y-72087433D01*
X204611438Y-71991835D01*
X204627088Y-71893027D01*
X204627088Y-71696186D01*
X204596298Y-71501785D01*
X204579446Y-71449919D01*
X204535472Y-71314582D01*
X204446112Y-71139202D01*
X204330416Y-70979961D01*
X204191234Y-70840779D01*
X204031993Y-70725083D01*
X204031992Y-70725082D01*
X204031990Y-70725081D01*
X203856613Y-70635723D01*
X203669409Y-70574896D01*
X203475008Y-70544107D01*
X203475005Y-70544107D01*
X203278171Y-70544107D01*
X203278168Y-70544107D01*
X203083766Y-70574896D01*
X202896562Y-70635723D01*
X202721185Y-70725081D01*
X202561943Y-70840778D01*
X202422759Y-70979962D01*
X202307062Y-71139204D01*
X202217704Y-71314581D01*
X202156877Y-71501785D01*
X202126088Y-71696186D01*
X194884367Y-71696186D01*
X195017290Y-71563263D01*
X195071805Y-71535488D01*
X195117885Y-71539115D01*
X195305586Y-71600103D01*
X195305583Y-71600103D01*
X195499993Y-71630894D01*
X195499996Y-71630894D01*
X195696833Y-71630894D01*
X195842636Y-71607800D01*
X195891239Y-71600103D01*
X196078438Y-71539278D01*
X196253818Y-71449918D01*
X196413059Y-71334222D01*
X196552241Y-71195040D01*
X196667937Y-71035799D01*
X196757297Y-70860419D01*
X196818122Y-70673220D01*
X196824061Y-70635723D01*
X196848913Y-70478814D01*
X196848913Y-70281973D01*
X196818123Y-70087572D01*
X196818122Y-70087568D01*
X196757297Y-69900369D01*
X196667937Y-69724989D01*
X196552241Y-69565748D01*
X196413059Y-69426566D01*
X196253818Y-69310870D01*
X196253817Y-69310869D01*
X196253815Y-69310868D01*
X196078438Y-69221510D01*
X195891234Y-69160683D01*
X195696833Y-69129894D01*
X195696830Y-69129894D01*
X195499996Y-69129894D01*
X195499993Y-69129894D01*
X195305591Y-69160683D01*
X195118387Y-69221510D01*
X194943010Y-69310868D01*
X194783768Y-69426565D01*
X194644584Y-69565749D01*
X194528887Y-69724991D01*
X194439529Y-69900368D01*
X194378702Y-70087572D01*
X194347913Y-70281973D01*
X194347913Y-70478814D01*
X194378703Y-70673217D01*
X194439691Y-70860921D01*
X194439691Y-70922106D01*
X194415540Y-70961517D01*
X190431555Y-74945504D01*
X190377038Y-74973281D01*
X190361551Y-74974500D01*
X171217255Y-74974500D01*
X171159064Y-74955593D01*
X171147251Y-74945504D01*
X170686676Y-74484929D01*
X170658899Y-74430412D01*
X170662526Y-74384332D01*
X170723514Y-74196633D01*
X170754305Y-74002226D01*
X170754305Y-73805385D01*
X170723515Y-73610984D01*
X170723514Y-73610980D01*
X170662689Y-73423781D01*
X170573329Y-73248401D01*
X170457633Y-73089160D01*
X170318451Y-72949978D01*
X170159210Y-72834282D01*
X170159209Y-72834281D01*
X170159207Y-72834280D01*
X169983830Y-72744922D01*
X169796626Y-72684095D01*
X169602225Y-72653306D01*
X169602222Y-72653306D01*
X169405388Y-72653306D01*
X169405385Y-72653306D01*
X169210983Y-72684095D01*
X169023779Y-72744922D01*
X168848402Y-72834280D01*
X168689160Y-72949977D01*
X168549976Y-73089161D01*
X168434279Y-73248403D01*
X168344682Y-73424251D01*
X168301417Y-73467515D01*
X168256472Y-73478306D01*
X164512213Y-73478306D01*
X164400176Y-73478306D01*
X164333942Y-73496053D01*
X164291952Y-73507304D01*
X164194933Y-73563319D01*
X151922082Y-85836168D01*
X151867565Y-85863945D01*
X151821486Y-85860319D01*
X151717698Y-85826597D01*
X151546614Y-85799500D01*
X151546611Y-85799500D01*
X151373389Y-85799500D01*
X151373386Y-85799500D01*
X151202297Y-85826597D01*
X151202293Y-85826598D01*
X151037561Y-85880123D01*
X151037558Y-85880125D01*
X150883214Y-85958766D01*
X150743073Y-86060585D01*
X150620585Y-86183073D01*
X150518766Y-86323214D01*
X150440125Y-86477558D01*
X150440123Y-86477561D01*
X150386598Y-86642293D01*
X150386597Y-86642297D01*
X150359500Y-86813385D01*
X150359500Y-86986614D01*
X150386597Y-87157702D01*
X150386598Y-87157706D01*
X150440123Y-87322438D01*
X150440125Y-87322441D01*
X150518635Y-87476528D01*
X150518768Y-87476788D01*
X150620586Y-87616928D01*
X150743072Y-87739414D01*
X150883212Y-87841232D01*
X151037555Y-87919873D01*
X151037557Y-87919873D01*
X151037558Y-87919874D01*
X151037561Y-87919876D01*
X151202293Y-87973401D01*
X151202297Y-87973402D01*
X151373386Y-88000500D01*
X151373389Y-88000500D01*
X151546614Y-88000500D01*
X151717702Y-87973402D01*
X151800530Y-87946489D01*
X151874855Y-87922338D01*
X151936040Y-87922338D01*
X151975452Y-87946489D01*
X152359525Y-88330562D01*
X152359524Y-88330562D01*
X152429438Y-88400475D01*
X152515058Y-88449908D01*
X152515062Y-88449910D01*
X152562812Y-88462705D01*
X152562813Y-88462705D01*
X152610564Y-88475500D01*
X152610565Y-88475500D01*
X153169151Y-88475500D01*
X153227342Y-88494407D01*
X153263306Y-88543907D01*
X153263306Y-88605093D01*
X153239156Y-88644501D01*
X153160586Y-88723072D01*
X153160585Y-88723073D01*
X153058766Y-88863214D01*
X152980125Y-89017558D01*
X152980123Y-89017561D01*
X152926598Y-89182293D01*
X152926597Y-89182297D01*
X152899500Y-89353385D01*
X152899500Y-89526614D01*
X152926597Y-89697702D01*
X152926598Y-89697706D01*
X152977660Y-89854855D01*
X152977661Y-89916040D01*
X152953510Y-89955451D01*
X152544438Y-90364524D01*
X152474524Y-90434438D01*
X152425089Y-90520061D01*
X152425089Y-90520062D01*
X152425090Y-90520063D01*
X152402817Y-90603188D01*
X152402816Y-90603192D01*
X152399500Y-90615565D01*
X152399500Y-90780500D01*
X152380593Y-90838691D01*
X152331093Y-90874655D01*
X152300500Y-90879500D01*
X150585326Y-90879500D01*
X150585325Y-90879500D01*
X150585315Y-90879501D01*
X150512263Y-90894033D01*
X150512257Y-90894035D01*
X150429400Y-90949397D01*
X150429397Y-90949400D01*
X150374035Y-91032257D01*
X150374033Y-91032263D01*
X150359501Y-91105315D01*
X150359500Y-91105327D01*
X150359500Y-92508454D01*
X150340593Y-92566645D01*
X150330504Y-92578458D01*
X147269438Y-95639525D01*
X147269437Y-95639524D01*
X147199524Y-95709438D01*
X147150089Y-95795061D01*
X147150089Y-95795062D01*
X147150090Y-95795063D01*
X147136726Y-95844940D01*
X147124569Y-95890309D01*
X147124500Y-95890565D01*
X146575500Y-95890565D01*
X146575500Y-94196545D01*
X146594407Y-94138354D01*
X146604496Y-94126541D01*
X150527344Y-90203693D01*
X150581861Y-90175916D01*
X150642293Y-90185487D01*
X150667348Y-90203690D01*
X150743072Y-90279414D01*
X150883212Y-90381232D01*
X151037555Y-90459873D01*
X151037557Y-90459873D01*
X151037558Y-90459874D01*
X151037561Y-90459876D01*
X151202293Y-90513401D01*
X151202297Y-90513402D01*
X151373386Y-90540500D01*
X151373389Y-90540500D01*
X151546614Y-90540500D01*
X151717702Y-90513402D01*
X151717706Y-90513401D01*
X151882438Y-90459876D01*
X151882440Y-90459874D01*
X151882445Y-90459873D01*
X152036788Y-90381232D01*
X152176928Y-90279414D01*
X152299414Y-90156928D01*
X152401232Y-90016788D01*
X152479873Y-89862445D01*
X152479874Y-89862440D01*
X152479876Y-89862438D01*
X152533401Y-89697706D01*
X152533402Y-89697702D01*
X152560500Y-89526614D01*
X152560500Y-89353385D01*
X152533402Y-89182297D01*
X152533401Y-89182293D01*
X152479876Y-89017561D01*
X152479874Y-89017558D01*
X152479873Y-89017557D01*
X152479873Y-89017555D01*
X152401232Y-88863212D01*
X152299414Y-88723072D01*
X152176928Y-88600586D01*
X152036788Y-88498768D01*
X152036787Y-88498767D01*
X152036785Y-88498766D01*
X151882441Y-88420125D01*
X151882438Y-88420123D01*
X151717706Y-88366598D01*
X151717702Y-88366597D01*
X151546614Y-88339500D01*
X151546611Y-88339500D01*
X151373389Y-88339500D01*
X151373386Y-88339500D01*
X151202297Y-88366597D01*
X151202293Y-88366598D01*
X151037561Y-88420123D01*
X151037558Y-88420125D01*
X150883214Y-88498766D01*
X150743073Y-88600585D01*
X150620585Y-88723073D01*
X150518766Y-88863214D01*
X150440127Y-89017554D01*
X150386596Y-89182306D01*
X150372798Y-89269423D01*
X150345021Y-89323939D01*
X145969438Y-93699525D01*
X145919504Y-93749459D01*
X145864987Y-93777236D01*
X145804555Y-93767665D01*
X145761290Y-93724400D01*
X145750500Y-93679455D01*
X145750500Y-79479076D01*
X151556880Y-79479076D01*
X151556880Y-79676163D01*
X151595329Y-79869454D01*
X151595329Y-79869456D01*
X151670747Y-80051533D01*
X151670748Y-80051534D01*
X151780241Y-80215402D01*
X151919598Y-80354759D01*
X152083466Y-80464252D01*
X152265545Y-80539671D01*
X152458839Y-80578120D01*
X152458840Y-80578120D01*
X152655920Y-80578120D01*
X152655921Y-80578120D01*
X152849215Y-80539671D01*
X153031294Y-80464252D01*
X153195162Y-80354759D01*
X153334519Y-80215402D01*
X153444012Y-80051534D01*
X153519431Y-79869455D01*
X153557880Y-79676161D01*
X153557880Y-79479079D01*
X153519431Y-79285785D01*
X153444012Y-79103706D01*
X153334519Y-78939838D01*
X153195162Y-78800481D01*
X153083380Y-78725791D01*
X153031293Y-78690987D01*
X152849215Y-78615569D01*
X152655923Y-78577120D01*
X152655921Y-78577120D01*
X152458839Y-78577120D01*
X152458836Y-78577120D01*
X152265545Y-78615569D01*
X152265543Y-78615569D01*
X152083466Y-78690987D01*
X151919598Y-78800481D01*
X151919594Y-78800484D01*
X151780244Y-78939834D01*
X151780241Y-78939838D01*
X151670747Y-79103706D01*
X151595329Y-79285783D01*
X151595329Y-79285785D01*
X151556880Y-79479076D01*
X145750500Y-79479076D01*
X145750500Y-76028395D01*
X155007561Y-76028395D01*
X155007561Y-76225482D01*
X155046010Y-76418773D01*
X155046010Y-76418775D01*
X155121428Y-76600852D01*
X155121429Y-76600853D01*
X155230922Y-76764721D01*
X155370279Y-76904078D01*
X155534147Y-77013571D01*
X155716226Y-77088990D01*
X155909520Y-77127439D01*
X155909521Y-77127439D01*
X156106601Y-77127439D01*
X156106602Y-77127439D01*
X156299896Y-77088990D01*
X156481975Y-77013571D01*
X156645843Y-76904078D01*
X156785200Y-76764721D01*
X156894693Y-76600853D01*
X156970112Y-76418774D01*
X157008561Y-76225480D01*
X157008561Y-76028398D01*
X156970112Y-75835104D01*
X156894693Y-75653025D01*
X156785200Y-75489157D01*
X156645843Y-75349800D01*
X156481975Y-75240307D01*
X156481976Y-75240307D01*
X156481974Y-75240306D01*
X156299896Y-75164888D01*
X156106604Y-75126439D01*
X156106602Y-75126439D01*
X155909520Y-75126439D01*
X155909517Y-75126439D01*
X155716226Y-75164888D01*
X155716224Y-75164888D01*
X155534147Y-75240306D01*
X155370279Y-75349800D01*
X155370275Y-75349803D01*
X155230925Y-75489153D01*
X155230922Y-75489157D01*
X155121428Y-75653025D01*
X155046010Y-75835102D01*
X155046010Y-75835104D01*
X155007561Y-76028395D01*
X145750500Y-76028395D01*
X145750500Y-75648322D01*
X145769407Y-75590131D01*
X145779496Y-75578318D01*
X149756358Y-71601456D01*
X174699500Y-71601456D01*
X174699500Y-71798543D01*
X174737949Y-71991834D01*
X174737949Y-71991836D01*
X174813367Y-72173913D01*
X174813368Y-72173914D01*
X174922861Y-72337782D01*
X175062218Y-72477139D01*
X175226086Y-72586632D01*
X175408165Y-72662051D01*
X175601459Y-72700500D01*
X175601460Y-72700500D01*
X175798540Y-72700500D01*
X175798541Y-72700500D01*
X175991835Y-72662051D01*
X176173914Y-72586632D01*
X176337782Y-72477139D01*
X176477139Y-72337782D01*
X176586632Y-72173914D01*
X176662051Y-71991835D01*
X176700500Y-71798541D01*
X176700500Y-71601459D01*
X176662051Y-71408165D01*
X176586632Y-71226086D01*
X176477139Y-71062218D01*
X176337782Y-70922861D01*
X176228288Y-70849699D01*
X176173913Y-70813367D01*
X175991835Y-70737949D01*
X175798543Y-70699500D01*
X175798541Y-70699500D01*
X175601459Y-70699500D01*
X175601456Y-70699500D01*
X175408165Y-70737949D01*
X175408163Y-70737949D01*
X175226086Y-70813367D01*
X175062218Y-70922861D01*
X175062214Y-70922864D01*
X174922864Y-71062214D01*
X174922861Y-71062218D01*
X174813367Y-71226086D01*
X174737949Y-71408163D01*
X174737949Y-71408165D01*
X174699500Y-71601456D01*
X149756358Y-71601456D01*
X151978318Y-69379496D01*
X152032835Y-69351719D01*
X152048322Y-69350500D01*
X167841675Y-69350500D01*
X167849039Y-69352240D01*
X167907450Y-69350500D01*
X167965892Y-69350500D01*
X167973202Y-69348540D01*
X167980765Y-69348316D01*
X168036731Y-69331518D01*
X168093186Y-69316392D01*
X168099739Y-69312608D01*
X168106987Y-69310433D01*
X168156702Y-69279720D01*
X168207314Y-69250500D01*
X168207317Y-69250496D01*
X168212465Y-69246547D01*
X168212687Y-69246837D01*
X168214303Y-69245559D01*
X168214072Y-69245275D01*
X168219097Y-69241175D01*
X168219103Y-69241172D01*
X168259182Y-69198631D01*
X168300500Y-69157314D01*
X168304283Y-69150761D01*
X169246419Y-68150775D01*
X178150181Y-68150775D01*
X178150181Y-68347862D01*
X178188630Y-68541153D01*
X178188630Y-68541155D01*
X178264048Y-68723232D01*
X178264049Y-68723233D01*
X178373542Y-68887101D01*
X178512899Y-69026458D01*
X178676767Y-69135951D01*
X178858846Y-69211370D01*
X179052140Y-69249819D01*
X179052141Y-69249819D01*
X179249221Y-69249819D01*
X179249222Y-69249819D01*
X179442516Y-69211370D01*
X179624595Y-69135951D01*
X179788463Y-69026458D01*
X179927820Y-68887101D01*
X180037313Y-68723233D01*
X180112732Y-68541154D01*
X180151181Y-68347860D01*
X180151181Y-68150778D01*
X180112732Y-67957484D01*
X180037313Y-67775405D01*
X179927820Y-67611537D01*
X179788463Y-67472180D01*
X179624595Y-67362687D01*
X179624596Y-67362687D01*
X179624594Y-67362686D01*
X179442516Y-67287268D01*
X179249224Y-67248819D01*
X179249222Y-67248819D01*
X179052140Y-67248819D01*
X179052137Y-67248819D01*
X178858846Y-67287268D01*
X178858844Y-67287268D01*
X178676767Y-67362686D01*
X178512899Y-67472180D01*
X178512895Y-67472183D01*
X178373545Y-67611533D01*
X178373542Y-67611537D01*
X178264048Y-67775405D01*
X178188630Y-67957482D01*
X178188630Y-67957484D01*
X178150181Y-68150775D01*
X169246419Y-68150775D01*
X169376168Y-68013059D01*
X169754465Y-67611533D01*
X170236413Y-67099992D01*
X197529894Y-67099992D01*
X197529894Y-67296833D01*
X197560683Y-67491234D01*
X197560685Y-67491239D01*
X197621510Y-67678438D01*
X197710870Y-67853818D01*
X197826566Y-68013059D01*
X197965748Y-68152241D01*
X198124989Y-68267937D01*
X198300369Y-68357297D01*
X198487568Y-68418122D01*
X198487569Y-68418122D01*
X198487572Y-68418123D01*
X198681974Y-68448913D01*
X198681977Y-68448913D01*
X198878814Y-68448913D01*
X199073215Y-68418123D01*
X199073216Y-68418122D01*
X199073220Y-68418122D01*
X199260419Y-68357297D01*
X199435799Y-68267937D01*
X199595040Y-68152241D01*
X199734222Y-68013059D01*
X199849918Y-67853818D01*
X199939278Y-67678438D01*
X200000103Y-67491239D01*
X200003122Y-67472180D01*
X200030894Y-67296833D01*
X200030894Y-67099992D01*
X200000104Y-66905591D01*
X200000103Y-66905587D01*
X199939278Y-66718388D01*
X199849918Y-66543008D01*
X199734222Y-66383767D01*
X199595040Y-66244585D01*
X199435799Y-66128889D01*
X199435798Y-66128888D01*
X199435796Y-66128887D01*
X199260419Y-66039529D01*
X199073215Y-65978702D01*
X198878814Y-65947913D01*
X198878811Y-65947913D01*
X198681977Y-65947913D01*
X198681974Y-65947913D01*
X198487572Y-65978702D01*
X198300368Y-66039529D01*
X198124991Y-66128887D01*
X197965749Y-66244584D01*
X197826565Y-66383768D01*
X197710868Y-66543010D01*
X197621510Y-66718387D01*
X197560683Y-66905591D01*
X197529894Y-67099992D01*
X170236413Y-67099992D01*
X173786787Y-63331612D01*
X173840453Y-63302223D01*
X173858844Y-63300500D01*
X201952043Y-63300500D01*
X202010234Y-63319407D01*
G37*
%TD.AperFunction*%
%TD*%
M02*
