M48
; DRILL file KiCad 10.0.4 date 2026-09-13T18:26:32
; FORMAT={-:-/ absolute / metric / decimal}
; #@! TF.CreationDate,2026-09-13T18:26:32+02:00
; #@! TF.GenerationSoftware,Kicad,Pcbnew,10.0.4
; #@! TF.FileFunction,Plated,1,2,PTH
FMAT,2
METRIC
; #@! TA.AperFunction,Plated,PTH,ViaDrill
T1C0.300
; #@! TA.AperFunction,Plated,PTH,ViaDrill
T2C0.400
; #@! TA.AperFunction,Plated,PTH,ComponentDrill
T3C0.800
; #@! TA.AperFunction,Plated,PTH,ComponentDrill
T4C0.889
; #@! TA.AperFunction,Plated,PTH,ComponentDrill
T5C1.000
; #@! TA.AperFunction,Plated,PTH,ComponentDrill
T6C1.100
%
G90
G05
T1
X159.05Y-99.5
X166.25Y-94.95
X175.15Y-87.05
X183.5Y-66.05
X186.1Y-92.2
X188.5Y-73.0
X191.2Y-66.05
X192.4Y-97.75
X197.7Y-95.25
X199.4Y-98.25
X202.54Y-109.8
X202.55Y-105.85
X203.9Y-101.8
X207.15Y-121.4
X207.9Y-91.0
X210.85Y-74.05
X212.95Y-102.2
X213.2Y-98.9
X219.1Y-112.5
X221.0Y-106.8
T2
X154.0Y-94.46
X154.2Y-115.1
X155.0Y-115.9
X156.0Y-117.3
X156.3Y-89.5
X156.3Y-90.662
X159.3Y-93.4
X170.9Y-93.4
X177.387Y-97.513
X177.4Y-96.5
X177.9Y-104.3
X181.1Y-104.3
X181.5Y-77.3
X181.6Y-79.6
X181.6Y-100.4
X181.85Y-92.85
X181.97Y-105.04
X182.6Y-77.8
X184.7Y-92.775
X191.6Y-102.8
X191.62Y-101.755
X196.088Y-96.829
X198.06Y-105.77
X198.9Y-94.5
X199.2Y-92.775
X200.5Y-93.5
X203.65Y-96.425
X203.775Y-102.975
X205.43Y-111.2
X207.487Y-100.487
X208.975Y-99.7
X211.3Y-115.3
X211.502Y-117.1
X213.05Y-92.85
X215.0Y-92.8
T3
X152.0Y-104.5
X152.557Y-79.578
X155.451Y-101.049
X156.008Y-76.127
X173.422Y-88.688
X175.7Y-71.7
X176.873Y-85.237
X179.151Y-68.249
X196.991Y-84.667
X200.442Y-81.216
X208.219Y-107.751
X211.67Y-104.3
T4
X179.9Y-106.18
X179.9Y-108.72
X179.9Y-111.26
X179.9Y-113.8
X179.9Y-116.34
X179.9Y-118.88
X179.9Y-121.42
X195.14Y-106.18
X195.14Y-108.72
X195.14Y-111.26
X195.14Y-113.8
X195.14Y-116.34
X195.14Y-118.88
X195.14Y-121.42
T5
X151.46Y-86.9
X151.46Y-89.44
X151.46Y-91.98
X154.0Y-86.9
X154.0Y-89.44
X154.0Y-91.98
T6
X165.532Y-104.325
X166.322Y-77.086
X168.714Y-101.143
X169.504Y-73.904
X170.129Y-108.921
X170.918Y-81.682
X173.311Y-105.739
X174.1Y-78.5
X193.78Y-96.01
X193.78Y-100.51
X195.598Y-70.38
X198.78Y-67.198
X200.195Y-74.977
X200.28Y-96.01
X200.28Y-100.51
X203.377Y-71.795
X208.937Y-80.688
X212.119Y-77.506
X213.534Y-85.284
X215.452Y-99.306
X216.716Y-82.102
X218.634Y-96.124
X220.048Y-103.902
X223.23Y-100.72
M30
